<?xml version="1.0" encoding="utf-8"?>
<!-- Generator: Adobe Illustrator 22.0.1, SVG Export Plug-In . SVG Version: 6.00 Build 0)  -->
<svg version="1.1" id="Layer_1" xmlns="http://www.w3.org/2000/svg" xmlns:xlink="http://www.w3.org/1999/xlink" x="0px" y="0px"
	 viewBox="0 0 50 50" style="enable-background:new 0 0 50 50;" xml:space="preserve">
<style type="text/css">
	.st0{fill:#7E99F9;}
</style>
<path class="st0" d="M25,0c6.9,0,13.2,2.8,17.7,7.3S50,18.1,50,25s-2.8,13.2-7.3,17.7S31.9,50,25,50s-13.2-2.8-17.7-7.3S0,31.9,0,25
	S2.8,11.8,7.3,7.3S18.1,0,25,0L25,0z M41.3,8.7C37.1,4.5,31.4,2,25,2S12.9,4.5,8.7,8.7S2,18.6,2,25s2.6,12.1,6.8,16.3
	C12.9,45.5,18.6,48,25,48s12.1-2.6,16.3-6.7C45.5,37.1,48,31.4,48,25S45.5,12.9,41.3,8.7L41.3,8.7z"/>
<path class="st0" d="M18.6,25c0-3.5,2.9-6.4,6.4-6.4s6.4,2.9,6.4,6.4s-2.9,6.4-6.4,6.4S18.6,28.5,18.6,25L18.6,25z M31.6,12.5H18.4
	c-3.3,0-5.9,2.7-5.9,5.9v13.2c0,3.3,2.7,5.9,5.9,5.9h13.2c3.3,0,5.9-2.7,5.9-5.9V18.4C37.5,15.1,34.9,12.5,31.6,12.5L31.6,12.5z
	 M18.4,14h13.2c2.5,0,4.4,2,4.4,4.4v13.2c0,2.4-2,4.4-4.4,4.4H18.4c-2.5,0-4.4-2-4.4-4.4V18.4C14,15.9,15.9,14,18.4,14L18.4,14z
	 M32.9,15.8c-0.7,0-1.3,0.6-1.3,1.3s0.6,1.3,1.3,1.3s1.3-0.6,1.3-1.3C34.2,16.4,33.7,15.8,32.9,15.8L32.9,15.8z M33.1,25
	c0-4.5-3.6-8.1-8.1-8.1s-8.1,3.6-8.1,8.1s3.6,8.1,8.1,8.1S33.1,29.5,33.1,25L33.1,25z"/>
</svg>
