
<svg version="1.1" xmlns="http://www.w3.org/2000/svg" xmlns:xlink="http://www.w3.org/1999/xlink" x="0px" y="0px"
	 viewBox="0 0 57 57" style="enable-background:new 0 0 57 57;" xml:space="preserve">
<style type="text/css">
	.st0{fill:#AAAAAA;}
	.st1{fill:#D8D7DB;}
	.st2{fill:#7887F1;}
	.st3{fill:#FFFFFF;}
	.st4{fill:#FEFFFF;}
	.st5{fill:#E1E1E1;}
</style>
<g id="BACKGROUND">
</g>
<g id="OBJECTS">
	<path class="st0" d="M0,22.4v30.9c0,2,1.6,3.7,3.6,3.7h49.9c2,0,3.6-1.6,3.6-3.7V22.4H0z"/>
	<path class="st1" d="M55.7,19.8L30.3,0.6c-1.1-0.8-2.6-0.8-3.7,0L1.3,19.8C0.5,20.4,0,21.4,0,22.4v0h57v0
		C57,21.4,56.5,20.4,55.7,19.8z"/>
	<path class="st2" d="M48.5,4.6H8.4c-0.6,0-1.1,0.5-1.1,1.2v35.2c0,0.6,0.5,1.2,1.1,1.2h40.1c0.6,0,1.1-0.5,1.1-1.2V5.8
		C49.6,5.1,49.1,4.6,48.5,4.6z"/>
	<g>
		<rect x="13.6" y="11.4" class="st3" width="29.6" height="1.7"/>
		<rect x="13.6" y="22" class="st3" width="29.6" height="1.7"/>
		<rect x="13.6" y="27.3" class="st3" width="29.6" height="1.7"/>
		<rect x="13.6" y="16.7" class="st3" width="29.6" height="1.7"/>
	</g>
	<path class="st4" d="M3.6,57h50c1.9,0,3.5-1.6,3.5-3.6v-31L3.6,57z"/>
	<path class="st5" d="M0,22.4v31c0,2,1.6,3.6,3.5,3.6h50L0,22.4z"/>
</g>
<g id="DESIGNED_BY_FREEPIK">
</g>
</svg>
