<?xml version="1.0" encoding="utf-8"?>
<!-- Generator: Adobe Illustrator 22.0.1, SVG Export Plug-In . SVG Version: 6.00 Build 0)  -->
<svg version="1.1" id="Layer_1" xmlns="http://www.w3.org/2000/svg" xmlns:xlink="http://www.w3.org/1999/xlink" x="0px" y="0px"
	 viewBox="0 0 50 50" style="enable-background:new 0 0 50 50;" xml:space="preserve">
<style type="text/css">
	.st0{fill:#7E99F9;}
</style>
<path class="st0" d="M25,0c6.9,0,13.2,2.8,17.7,7.3S50,18.1,50,25s-2.8,13.1-7.3,17.7C38.2,47.2,31.9,50,25,50s-13.2-2.8-17.7-7.3
	S0,31.9,0,25S2.8,11.8,7.3,7.3C11.9,2.9,18.1,0,25,0L25,0z M41.3,8.8C37.1,4.6,31.4,2,25,2S12.9,4.6,8.7,8.8s-6.8,9.9-6.8,16.3
	s2.6,12.1,6.8,16.3s9.9,6.8,16.3,6.8s12.1-2.6,16.3-6.8s6.8-9.9,6.8-16.3C48.1,18.7,45.5,12.9,41.3,8.8L41.3,8.8z"/>
<path class="st0" d="M37.5,19.7c0,0-0.3-1.8-1-2.6C35.5,16,34.4,16,34,16c-3.6-0.3-8.9-0.3-8.9-0.3l0,0c0,0-5.3,0-8.9,0.3
	c-0.5,0.1-1.6,0.1-2.6,1.1c-0.8,0.8-1,2.6-1,2.6s-0.3,2.2-0.3,4.3v0.3v1.8c0,2.2,0.3,4.3,0.3,4.3s0.3,1.8,1,2.7c1,1.1,2.2,1,2.8,1.1
	c2,0.2,8.7,0.3,8.7,0.3s5.4,0,8.9-0.3c0.5-0.1,1.6-0.1,2.5-1.1c0.8-0.8,1-2.7,1-2.7s0.2-2.1,0.2-4.3v-1.6v-0.4
	C37.8,21.9,37.5,19.7,37.5,19.7L37.5,19.7z M29.3,24.8l-6.9,3.7v-5.7v-1.7l3.1,1.7L29.3,24.8z"/>
</svg>
