<?xml version="1.0" encoding="utf-8"?>
<!-- Generator: Adobe Illustrator 22.0.1, SVG Export Plug-In . SVG Version: 6.00 Build 0)  -->
<svg version="1.1" id="Layer_1" xmlns="http://www.w3.org/2000/svg" xmlns:xlink="http://www.w3.org/1999/xlink" x="0px" y="0px"
	 viewBox="0 0 50 50" style="enable-background:new 0 0 50 50;" xml:space="preserve">
<style type="text/css">
	.st0{fill:url(#SVGID_1_);}
	.st1{fill:url(#SVGID_2_);}
</style>
<g id="surface1">
	
		<linearGradient id="SVGID_1_" gradientUnits="userSpaceOnUse" x1="10.0412" y1="25.841" x2="35.1994" y2="25.841" gradientTransform="matrix(1 0 0 -1 0 50.8)">
		<stop  offset="0" style="stop-color:#769FFC"/>
		<stop  offset="1" style="stop-color:#7F30CA"/>
	</linearGradient>
	<path class="st0" d="M33.3,13.7c-0.3,0-0.6,0.1-0.9,0.2l0,0c-0.3,0.1-1.6,0.7-3.6,1.5c-2,0.8-4.6,1.9-7.1,3
		c-5.1,2.2-10.2,4.3-10.2,4.3h0.1c0,0-0.3,0.1-0.7,0.4c-0.2,0.1-0.4,0.3-0.6,0.5c-0.2,0.3-0.3,0.7-0.3,1.1c0.1,0.7,0.5,1.1,0.9,1.3
		c0.3,0.2,0.6,0.3,0.6,0.3l0,0l4.7,1.6c0.2,0.7,1.4,4.7,1.7,5.6c0.2,0.6,0.3,0.9,0.6,1.2c0.1,0.1,0.2,0.2,0.4,0.3
		c0.1,0,0.1,0.1,0.2,0.1c0,0,0,0,0.1,0l0,0l0,0h0.1c0.7,0.2,1.3-0.2,1.3-0.2l0,0l2.8-2.5l4.7,3.6h0.1c1,0.4,2,0.2,2.5-0.2
		s0.7-1,0.7-1v-0.1L35,16.2c0.1-0.5,0.1-0.9,0-1.3s-0.4-0.8-0.8-1C34,13.7,33.7,13.7,33.3,13.7z M33.2,15.7c0,0.1,0,0.1,0,0.2l0,0
		l-3.6,18.3c0,0,0,0.1-0.1,0.1c-0.1,0.1-0.1,0.1-0.4,0l-5.7-4.4L19.9,33l0.7-4.6c0,0,9-8.4,9.3-8.7c0.4-0.4,0.3-0.4,0.3-0.4
		c0-0.4-0.6-0.1-0.6-0.1l-11.8,7.3l0,0l-5.6-2l0,0l0,0l0,0l0,0l0,0c0,0,5-2.1,10.2-4.3c2.6-1.1,5.2-2.2,7.1-3
		C31.6,16.4,33.1,15.7,33.2,15.7L33.2,15.7z"/>
</g>
<linearGradient id="SVGID_2_" gradientUnits="userSpaceOnUse" x1="0" y1="25.8" x2="50" y2="25.8" gradientTransform="matrix(1 0 0 -1 0 50.8)">
	<stop  offset="0" style="stop-color:#769FFC"/>
	<stop  offset="1" style="stop-color:#7F30CA"/>
</linearGradient>
<path class="st1" d="M25,0c6.9,0,13.2,2.8,17.7,7.3S50,18.1,50,25s-2.8,13.2-7.3,17.7S31.9,50,25,50s-13.2-2.8-17.7-7.3S0,31.9,0,25
	S2.8,11.8,7.3,7.3C11.9,2.8,18.1,0,25,0L25,0z M41.3,8.7C37.2,4.5,31.4,1.9,25,1.9S12.9,4.5,8.7,8.7S1.9,18.6,1.9,25
	s2.6,12.1,6.8,16.3s9.9,6.8,16.3,6.8s12.1-2.6,16.3-6.8s6.8-9.9,6.8-16.3C48.1,18.6,45.5,12.9,41.3,8.7L41.3,8.7z"/>
</svg>
