<?xml version="1.0" encoding="utf-8"?>
<!-- Generator: Adobe Illustrator 22.0.1, SVG Export Plug-In . SVG Version: 6.00 Build 0)  -->
<svg version="1.1" id="Layer_1" xmlns="http://www.w3.org/2000/svg" xmlns:xlink="http://www.w3.org/1999/xlink" x="0px" y="0px"
	 viewBox="0 0 14.2 14.2" style="enable-background:new 0 0 14.2 14.2;" xml:space="preserve">
<style type="text/css">
	.st0{fill:#ADABB9;}
</style>
<g>
	<path class="st0" d="M9.7,9.3c-0.1,0-0.2,0-0.2-0.1L6.8,7.5C6.7,7.4,6.6,7.2,6.6,7.1V2.7c0-0.2,0.2-0.4,0.4-0.4s0.4,0.2,0.4,0.4
		v4.2L10,8.5c0.2,0.1,0.3,0.4,0.1,0.6C10,9.2,9.9,9.3,9.7,9.3z"/>
	<path class="st0" d="M7.1,14.2C3.2,14.2,0,11,0,7.1S3.2,0,7.1,0s7.1,3.2,7.1,7.1S11,14.2,7.1,14.2z M7.1,0.9
		c-3.4,0-6.2,2.8-6.2,6.2s2.8,6.2,6.2,6.2s6.2-2.8,6.2-6.2S10.5,0.9,7.1,0.9z"/>
</g>
</svg>
