<?xml version="1.0" ?><!DOCTYPE svg  PUBLIC '-//W3C//DTD SVG 1.1//EN'  'http://www.w3.org/Graphics/SVG/1.1/DTD/svg11.dtd'><svg enable-background="new 0 0 48 48" height="48px" id="Layer_3" version="1.1" viewBox="0 0 48 48" width="48px" xml:space="preserve" xmlns="http://www.w3.org/2000/svg" xmlns:xlink="http://www.w3.org/1999/xlink"><g><rect fill="#241F20" height="18.836" width="3.754" x="0.116" y="17.893"/><rect fill="#241F20" height="3.886" width="3.754" x="0.116" y="11.373"/><path d="M17.506,11.373c-6.056,0-10.966,4.91-10.966,10.966v3.21h0.011c-0.001,0.072-0.011,0.143-0.011,0.215   c0,6.056,4.91,10.966,10.966,10.966c5.8,0,10.536-4.508,10.927-10.209h0.039v-4.182C28.473,16.283,23.562,11.373,17.506,11.373z    M24.02,27.838l-0.027,0.008c-0.271,3.205-2.955,5.723-6.23,5.723c-2.728,0-5.042-1.749-5.897-4.185   c-0.126-0.258-0.241-0.542-0.331-0.887c-0.671-2.6-0.562-5.039-0.354-6.633c0-0.002,0-0.004,0-0.006   c0.16-2.489,0.803-3.658,0.803-3.658l0.018,0.02c0.938-2.273,3.15-3.884,5.761-3.884c3.253,0,5.924,2.482,6.227,5.656   c0,0.002,0,0.003,0.001,0.005C24.554,24.736,24.02,27.838,24.02,27.838z" fill="#241F20"/><path d="M47.388,26.85c-0.001-0.003-0.006-0.006-0.007-0.009c-0.821-2.229-2.919-3.608-7.837-4.82   c-6.235-1.537-5.751-6.191-1.493-7.333c4.259-1.141,8.738,2.942,8.738,2.942v-2.371v-0.747v-1.581c0,0-9.879-6.629-15.28,2.02   c-2.524,5.175,0.16,9.654,6.027,10.715l-0.014,0.008c0,0,5.798,0.562,5.798,4.952c0,2.321-1.939,2.919-3.768,2.972   c-2.48-0.059-4.524-1.106-5.02-1.383L34.47,32.18c-0.02-0.011-0.055-0.031-0.055-0.031v0.001l-3.855-2.181v5.532   c0,0,8.458,4.215,13.595,0.395C49.292,32.076,47.744,27.629,47.388,26.85z" fill="#241F20"/></g></svg>