<?xml version="1.0" encoding="UTF-8"?>
<!DOCTYPE svg PUBLIC "-//W3C//DTD SVG 1.1//EN" "http://www.w3.org/Graphics/SVG/1.1/DTD/svg11.dtd">
<!-- Creator: CorelDRAW X6 -->
<svg xmlns="http://www.w3.org/2000/svg" xml:space="preserve" width="3.69444in" height="3.68055in" version="1.1" style="shape-rendering:geometricPrecision; text-rendering:geometricPrecision; image-rendering:optimizeQuality; fill-rule:evenodd; clip-rule:evenodd"
viewBox="0 0 3694 3681"
 xmlns:xlink="http://www.w3.org/1999/xlink">
 <defs>
  <style type="text/css">
   <![CDATA[
    .fil0 {fill:#F69033;fill-rule:nonzero}
   ]]>
  </style>
 </defs>
 <g id="Layer_x0020_1">
  <metadata id="CorelCorpID_0Corel-Layer"/>
  <path class="fil0" d="M2251 2645c183,0 382,63 602,258 22,20 51,-5 32,-29 -216,-273 -416,-325 -616,-369 -244,-54 -369,-191 -457,-342 -17,-30 -25,-25 -27,14 -2,47 1,110 12,171l0 0c-10,0 -20,0 -30,0 -349,0 -632,-283 -632,-632 0,-349 283,-632 632,-632 349,0 632,283 632,632 0,25 -1,49 -4,73 -46,-8 -137,-9 -201,-4 -24,2 -21,13 -2,17 209,38 352,167 385,402 1,5 8,7 11,2 86,-143 135,-311 135,-491 0,-528 -428,-956 -956,-956 -528,0 -956,428 -956,956 0,528 428,956 956,956 140,0 279,-27 483,-27zm71 -347c43,36 55,79 33,109 -13,17 -33,26 -57,26 -24,0 -48,-9 -65,-24 -39,-34 -50,-89 -25,-120 10,-12 26,-19 45,-19 23,0 48,10 69,28zm196 -91c6,42 -7,59 -20,59 -15,0 -33,-17 -54,-50 -21,-33 -29,-71 -18,-90 7,-13 21,-18 40,-11 35,13 49,68 53,93z"/>
 </g>
</svg>
