<svg width="32" height="45" viewBox="0 0 32 45" fill="none" xmlns="http://www.w3.org/2000/svg">
<path d="M10.6595 0.716919C10.6595 0.188876 10.1067 -0.157888 9.63294 0.072497L3.78815 2.90211C3.54291 3.02077 3.38428 3.27352 3.38428 3.54653V11.2221H10.6595V0.716919Z" fill="#C7C7C7"/>
<path d="M12.0888 14.8732C12.0888 14.3691 11.6806 13.9604 11.1771 13.9604H2.86529C2.36177 13.9604 1.95361 14.3691 1.95361 14.8732V21.2161H12.0888V14.8732Z" fill="#C7C7C7"/>
<path d="M29.1852 20.3635H20.6701C19.1595 20.3635 17.9351 21.5896 17.9351 23.1019V44.0364C17.9351 44.5406 18.3432 44.9492 18.8467 44.9492H31.0086C31.5121 44.9492 31.9202 44.5406 31.9202 44.0364V23.1019C31.9202 21.5896 30.6958 20.3635 29.1852 20.3635Z" fill="#C7C7C7"/>
<path d="M12.647 23.9544H1.39682C0.641582 23.9544 0.0292969 24.5674 0.0292969 25.3236V43.2569C0.0292969 44.1915 0.786083 44.9492 1.71955 44.9492H12.3233C13.2573 44.9492 14.0145 44.1912 14.0145 43.256V25.3236C14.0145 24.5674 13.4022 23.9544 12.647 23.9544Z" fill="#C7C7C7"/>
</svg>
