<svg width="36" height="38" viewBox="0 0 36 38" fill="none" xmlns="http://www.w3.org/2000/svg">
<rect x="6.25342" y="31.6016" width="23.4928" height="6.39844" fill="#C7C7C7"/>
<path d="M28.6916 3.44384C27.281 3.44384 25.9366 3.83857 24.7788 4.57678C24.3523 3.51956 23.6798 2.56704 22.8074 1.80422C21.4767 0.640758 19.7695 0 18 0C16.2305 0 14.5233 0.640758 13.1926 1.80429C12.3202 2.56711 11.6478 3.51963 11.2212 4.57685C10.0634 3.83864 8.71896 3.44391 7.30842 3.44391C3.27853 3.44384 0 6.72237 0 10.7523C0 14.424 2.72187 17.472 6.25373 17.9848V27.4922H29.7462V17.9848C33.2781 17.472 36 14.424 36 10.7523C36 6.72237 32.7215 3.44384 28.6916 3.44384Z" fill="#C7C7C7"/>
</svg>
