<svg width="40" height="40" viewBox="0 0 40 40" fill="none" xmlns="http://www.w3.org/2000/svg">
<path fill-rule="evenodd" clip-rule="evenodd" d="M7.67742 5.98484C7.01935 5.54328 5.48387 7.08874 3.94839 8.63419L0 4.88095L1.97411 2.89393C2.63217 2.2316 5.04508 0.0238037 7.89669 0.0238037C9.87088 0.0238037 13.3806 1.56926 13.3806 6.4264C13.3806 9.17911 12.3717 10.9164 10.9345 13.3912C10.8732 13.4968 10.8111 13.6037 10.7483 13.7121C9.65153 15.0368 7.45798 19.0108 6.58056 21.4394C5.92249 23.868 6.58056 25.6342 7.45798 25.6342C8.19531 25.6342 8.93264 24.8547 9.5398 24.2127C9.65516 24.0908 9.76582 23.9738 9.87088 23.868C10.1521 23.585 11.6048 21.8507 12.9582 20.2349C13.7164 19.3298 14.4435 18.4618 14.916 17.9069C16.4515 15.9199 20.8386 11.7251 25.6644 11.7251C32.0258 11.7251 33.9999 17.4654 34.4386 20.9978H39.9225V26.5173H34.4386C33.5612 37.1148 27.6387 39.9848 24.1289 39.9848C20.1806 39.9848 17.1096 36.8938 17.1096 33.1407C17.1096 29.3875 20.6193 22.5433 28.9548 21.2186C28.903 21.0101 28.8573 20.7955 28.8113 20.5791C28.4672 18.962 28.1019 17.2446 25.0064 17.2446C22.1549 17.2446 18.6452 21.4394 16.0129 24.7511C15.668 25.1561 15.3381 25.5498 15.0199 25.9296C12.9094 28.4481 11.3096 30.3573 9.2129 30.9329C7.23871 31.3745 5.26452 31.1537 3.50968 29.829C1.75484 28.2835 0.658065 26.0758 0.658065 23.2056C0.658065 17.9069 6.36129 10.1796 7.01935 9.29653C7.03898 9.26361 7.05899 9.23011 7.07932 9.19607C7.74088 8.08848 8.74149 6.41323 7.67742 5.98484ZM22.8128 32.9199C22.8128 33.8031 23.6904 34.4654 24.3485 34.4654C25.8839 34.4654 28.2967 32.6991 29.1742 26.7381C24.3485 28.0627 22.8128 31.5952 22.8128 32.9199Z" fill="#82BA91"/>
</svg>
