<svg width="40" height="39" viewBox="0 0 40 39" fill="none" xmlns="http://www.w3.org/2000/svg">
<path d="M20.0459 18.8234C18.6978 18.8234 17.6011 19.9118 17.6011 21.2494C17.6011 22.5871 18.6978 23.6755 20.0459 23.6755C21.3941 23.6755 22.4908 22.5871 22.4908 21.2494C22.4909 19.9118 21.3941 18.8234 20.0459 18.8234Z" fill="#C7C7C7"/>
<path d="M33.297 28.0598C32.8556 27.3936 32.3688 26.7792 31.851 26.2162C30.9741 26.4595 30.0726 26.5893 29.1485 26.6046C27.0098 26.6401 24.7491 26.0655 22.3885 24.8837C22.0389 25.1064 21.6552 25.2807 21.2471 25.3972V31.3763C21.7073 32.5593 22.2994 33.7003 23.0083 34.7703C24.8373 37.5316 26.798 38.9316 28.8359 38.9316C29.9378 38.9316 31.1156 38.5278 32.3366 37.7314C33.9172 36.7006 34.8547 35.4759 35.1237 34.0911C35.4497 32.4112 34.8352 30.382 33.297 28.0598Z" fill="#C7C7C7"/>
<path d="M17.671 24.8633C15.4392 26.0366 13.281 26.6434 11.218 26.6776C10.316 26.6926 9.43261 26.5978 8.56852 26.3945C8.11043 26.9085 7.67809 27.463 7.28261 28.0598C5.74443 30.382 5.12982 32.4112 5.456 34.0911C5.72487 35.4758 6.66252 36.7006 8.24304 37.7314C9.46409 38.5278 10.6419 38.9316 11.7437 38.9316C13.7817 38.9316 15.7422 37.5316 17.5713 34.7704C18.2776 33.7044 18.8727 32.5477 19.3416 31.3303V25.5085C18.7333 25.4098 18.1673 25.1855 17.671 24.8633Z" fill="#C7C7C7"/>
<path d="M15.6958 21.2495C15.6958 19.6531 16.5744 18.2575 17.8761 17.5107C16.1691 14.7515 13.9916 13.0717 11.3916 12.5131C6.63652 11.4916 1.66626 14.4037 0 15.509C0.787043 17.34 3.34939 22.4892 7.88435 24.2111C10.4325 25.1785 13.2597 24.9172 16.2982 23.4371C15.916 22.7951 15.6958 22.0475 15.6958 21.2495Z" fill="#C7C7C7"/>
<path d="M26.1959 10.0363C25.829 5.23352 21.5906 1.32636 20.0457 0.0531616C18.5014 1.32575 14.2625 5.23309 13.8955 10.0363C13.8619 10.4759 13.8626 10.9132 13.896 11.348C16.2239 12.3799 18.1865 14.2536 19.753 16.9439C19.8498 16.9375 19.9472 16.9331 20.0456 16.9331C20.1667 16.9331 20.2865 16.9393 20.4052 16.949C21.9167 14.2233 23.8588 12.3165 26.2014 11.2567C26.2283 10.8519 26.2271 10.4451 26.1959 10.0363Z" fill="#C7C7C7"/>
<path d="M28.4899 12.4558C25.9531 13.0921 23.8618 14.7996 22.2598 17.536C23.5372 18.2888 24.3958 19.6712 24.3958 21.2494C24.3958 22.0544 24.1719 22.8082 23.7838 23.4539C26.9425 24.9077 29.8403 25.101 32.4047 24.0258C36.8864 22.1467 39.2626 16.9273 39.9845 15.0719C38.279 14.0238 33.1974 11.275 28.4899 12.4558Z" fill="#C7C7C7"/>
</svg>
