<svg width="40" height="43" viewBox="0 0 40 43" fill="none" xmlns="http://www.w3.org/2000/svg">
<path d="M0.00244141 23.0196C0.00244141 33.9927 8.9555 42.9199 19.96 42.9199C30.9647 42.9199 39.9175 33.9927 39.9175 23.0196C39.9175 15.4626 35.6708 8.87643 29.4319 5.50781L28.5276 9.58598C32.9761 12.417 35.9349 17.3786 35.9349 23.0196C35.9349 31.8029 28.7684 38.9487 19.9599 38.9487C11.1513 38.9487 3.985 31.8028 3.985 23.0196C3.985 17.3887 6.93329 12.4344 11.3686 9.60112L10.3634 5.57746C4.19333 8.96598 0.00244141 15.5132 0.00244141 23.0196Z" fill="#C7C7C7"/>
<path d="M12.5517 8.91355L12.9022 10.3252H27.0173L27.3316 8.89503L28.2083 4.90607L29.2866 0H29.2526H10.3384L11.5722 4.96879L12.5517 8.91355Z" fill="#C7C7C7"/>
</svg>
