<svg width="25" height="38" viewBox="0 0 25 38" fill="none" xmlns="http://www.w3.org/2000/svg">
<path fill-rule="evenodd" clip-rule="evenodd" d="M22.3219 11.9467C23.726 14.3971 24.4535 17.1695 24.4315 19.9857C24.6053 25.1586 21.9779 30.0311 17.5368 32.7718C17.3613 32.8673 17.1641 32.9175 16.9637 32.9175H18.4858C19.1425 32.9175 19.6749 33.4439 19.6749 34.0932V36.4444C19.6749 37.0937 19.1425 37.62 18.4858 37.62H6.59439C5.93764 37.62 5.40525 37.0937 5.40525 36.4444V34.0932C5.40525 33.4439 5.93764 32.9175 6.59439 32.9175H8.11648C7.91686 32.9171 7.72057 32.8669 7.5457 32.7718C3.10373 30.0317 0.475361 25.159 0.648698 19.9857C0.626864 17.1688 1.35435 14.3957 2.75823 11.9444C4.21804 9.43944 4.56659 6.44966 3.72143 3.68208L3.07454 1.50718C2.96883 1.15163 3.03889 0.767618 3.26357 0.47098C3.48825 0.174343 3.84126 -0.000191421 4.21611 2.5613e-05H20.864C21.2401 -0.00242553 21.5952 0.171175 21.8216 0.468143C22.0479 0.765111 22.1188 1.15043 22.0128 1.50718L21.3706 3.67033C20.5183 6.44065 20.8626 9.4361 22.3219 11.9467ZM7.78353 19.9857C7.76156 17.5833 8.37829 15.2173 9.57199 13.1247C10.8759 10.9063 11.4704 8.34978 11.2772 5.79115C11.2591 5.47869 11.1139 5.18674 10.8747 4.98171C10.6355 4.77668 10.3227 4.67598 10.0072 4.70253C9.69195 4.72478 9.39862 4.8702 9.19201 5.10667C8.9854 5.34313 8.88251 5.65119 8.90607 5.9628C9.06246 8.0497 8.57751 10.1346 7.51478 11.9444C6.1109 14.3957 5.38342 17.1688 5.40525 19.9857C5.39055 22.6356 6.03494 25.2484 7.28171 27.5943C7.47805 27.9716 7.86481 28.215 8.29368 28.2312C8.72255 28.2475 9.12698 28.0339 9.35189 27.6726C9.5768 27.3112 9.5873 26.858 9.37935 26.4869C8.31701 24.4817 7.76902 22.2492 7.78353 19.9857Z" fill="#C7C7C7"/>
</svg>
