<svg width="34" height="31" viewBox="0 0 34 31" fill="none" xmlns="http://www.w3.org/2000/svg">
<path d="M16.9998 22.3334C19.9454 22.3334 22.3332 19.9455 22.3332 17C22.3332 14.0545 19.9454 11.6667 16.9998 11.6667C14.0543 11.6667 11.6665 14.0545 11.6665 17C11.6665 19.9455 14.0543 22.3334 16.9998 22.3334Z" fill="#C7C7C7"/>
<path fill-rule="evenodd" clip-rule="evenodd" d="M8.95016 3.66665L12.0002 0.333313H22.0002L25.0502 3.66665H30.3335C32.1668 3.66665 33.6668 5.16665 33.6668 6.99998V27C33.6668 28.8333 32.1668 30.3333 30.3335 30.3333H3.66683C1.8335 30.3333 0.333496 28.8333 0.333496 27V6.99998C0.333496 5.16665 1.8335 3.66665 3.66683 3.66665H8.95016ZM8.66683 17C8.66683 21.6 12.4002 25.3333 17.0002 25.3333C21.6002 25.3333 25.3335 21.6 25.3335 17C25.3335 12.4 21.6002 8.66665 17.0002 8.66665C12.4002 8.66665 8.66683 12.4 8.66683 17Z" fill="#C7C7C7"/>
</svg>
