<svg width="36" height="41" viewBox="0 0 36 41" fill="none" xmlns="http://www.w3.org/2000/svg">
<path fill-rule="evenodd" clip-rule="evenodd" d="M35.8477 31.912C36.2166 30.743 35.5641 29.4977 34.3906 29.1304C29.1526 27.4908 26.9283 18.1473 26.4068 14.7017C26.3305 14.2138 26.0775 13.7405 26.0775 13.7405C25.1156 11.9174 21.4746 11.0667 21.0648 11.0175C20.3288 10.9293 20.2352 10.3686 20.2042 10.178C21.49 9.28723 22.3583 7.1365 22.3583 5.19408C22.3581 2.32553 22.0541 0 18.1305 0H17.8237C13.9 0 13.5961 2.32553 13.5961 5.19408C13.5961 7.1365 14.4643 9.28723 15.75 10.178C15.7191 10.3686 15.5969 10.9388 14.8895 11.0175C14.4485 11.0668 10.2686 12.0494 9.70666 14.1708C9.70666 14.1708 9.63757 14.4742 9.59575 14.7103L9.59368 14.7245C9.55971 14.9605 9.11302 18.0649 7.86126 21.427C6.75585 24.3959 4.77559 28.1423 1.6187 29.1304C0.44513 29.4977 -0.207105 30.7431 0.16163 31.9121C0.4581 32.8515 1.32395 33.4548 2.26154 33.4651C0.384248 34.5405 0.109483 36.0398 0.109483 36.8168C0.109483 37.1256 0.269762 38.1296 1.0022 39.0547C1.65973 39.8863 2.97069 40.8775 5.47997 40.8775C5.85651 40.8775 6.25463 40.8551 6.6636 40.8113C8.33156 40.6327 10.0135 40.3644 11.6398 40.105L11.64 40.105L11.6431 40.1045C12.2338 40.0102 12.824 39.9162 13.4151 39.826C14.2022 39.7055 15.6214 39.6259 17.6324 39.5891H18.3218C20.3327 39.6259 21.752 39.7057 22.5391 39.826C23.1302 39.9162 23.7203 40.0102 24.311 40.1045L24.3141 40.105L24.3144 40.105C25.9406 40.3644 27.6226 40.6327 29.2905 40.8113C29.6996 40.8551 30.0977 40.8775 30.4742 40.8775C32.9834 40.8775 34.2944 39.8861 34.9519 39.0547C35.6844 38.1296 35.8446 37.1256 35.8446 36.8168C35.8446 36.0397 35.5699 34.5402 33.6922 33.4648C33.6971 33.4649 33.702 33.4652 33.7068 33.4654C33.7124 33.4657 33.7179 33.466 33.7234 33.466C34.6704 33.466 35.5487 32.8595 35.8477 31.912ZM9.82512 31.6312C8.69535 31.9813 8.43594 32.0181 7.4695 32.1548C7.15503 32.199 6.76842 32.2538 6.25635 32.3325C5.75487 32.3857 5.29507 32.457 4.87128 32.5427C7.77603 30.9441 10.1188 27.8965 11.8551 23.4476C11.952 24.3144 12.012 25.2691 12.012 26.3187C12.012 29.7435 10.2705 31.493 9.82512 31.6312ZM29.5494 32.3097C29.5977 32.3171 29.6471 32.3247 29.6978 32.3325C30.2338 32.3893 30.7225 32.4667 31.1701 32.5606C28.2263 30.9536 25.8582 27.8617 24.1113 23.3361C24.007 24.2321 23.9421 25.2242 23.9421 26.3188C23.9421 29.7436 25.441 31.7815 28.4846 32.1548C28.7686 32.1895 29.11 32.2421 29.5494 32.3097Z" fill="#82BA91"/>
</svg>
