<svg width="16" height="12" viewBox="0 0 16 12" fill="none" xmlns="http://www.w3.org/2000/svg">
<path fill-rule="evenodd" clip-rule="evenodd" d="M6.15385 10.2667C6.15385 10.2875 6.15705 10.3396 6.16346 10.4229C6.16987 10.5062 6.17147 10.5752 6.16827 10.6299C6.16506 10.6846 6.15545 10.7458 6.13942 10.8135C6.1234 10.8812 6.09135 10.932 6.04327 10.9659C5.99519 10.9997 5.92949 11.0167 5.84615 11.0167H2.76923C2.00641 11.0167 1.35417 10.7966 0.8125 10.3565C0.270831 9.91639 0 9.38645 0 8.76665V3.26665C0 2.64686 0.270831 2.11691 0.8125 1.67681C1.35417 1.2367 2.00641 1.01665 2.76923 1.01665H5.84615C5.92949 1.01665 6.0016 1.04139 6.0625 1.09087C6.1234 1.14035 6.15385 1.19894 6.15385 1.26665C6.15385 1.28748 6.15705 1.33957 6.16346 1.4229C6.16987 1.50623 6.17147 1.57525 6.16827 1.62993C6.16506 1.68462 6.15545 1.74582 6.13942 1.81353C6.1234 1.88123 6.09135 1.93202 6.04327 1.96587C5.99519 1.99972 5.92949 2.01665 5.84615 2.01665H2.76923C2.34615 2.01665 1.98398 2.13905 1.68269 2.38384C1.38141 2.62863 1.23077 2.9229 1.23077 3.26665V8.76665C1.23077 9.1104 1.38141 9.40467 1.68269 9.64946C1.98398 9.89426 2.34615 10.0167 2.76923 10.0167H5.53846C5.54487 10.0167 5.58013 10.0167 5.64423 10.0167C5.70833 10.0167 5.75 10.0167 5.76923 10.0167C5.78846 10.0167 5.82532 10.0193 5.87981 10.0245C5.93429 10.0297 5.97115 10.0375 5.99039 10.0479C6.00962 10.0583 6.03526 10.0726 6.06731 10.0909C6.09936 10.1091 6.1218 10.1325 6.13461 10.1612C6.14744 10.1898 6.15385 10.225 6.15385 10.2667ZM14.8942 5.59478C15.016 5.71353 15.0769 5.85415 15.0769 6.01665C15.0769 6.17915 15.016 6.31978 14.8942 6.43853L9.66346 11.5385C9.54167 11.6573 9.39744 11.7167 9.23077 11.7167C9.0641 11.7167 8.91987 11.6573 8.79808 11.5385C8.67628 11.4198 8.61539 11.2792 8.61539 11.1167V8.41665H6.30769C6.14103 8.41665 5.9968 8.35728 5.875 8.23853C5.7532 8.11978 5.69231 7.97915 5.69231 7.81665V4.21665C5.69231 4.05415 5.7532 3.91353 5.875 3.79478C5.9968 3.67603 6.14103 3.61665 6.30769 3.61665H8.61539V0.916652C8.61539 0.75415 8.67628 0.613527 8.79808 0.494777C8.91987 0.376026 9.0641 0.31665 9.23077 0.31665C9.39744 0.31665 9.54167 0.376026 9.66346 0.494777L14.8942 5.59478Z" fill="#A9ADB0"/>
</svg>
