<svg width="40" height="40" viewBox="0 0 40 40" fill="none" xmlns="http://www.w3.org/2000/svg">
<path d="M24.485 13.75C21.3492 9.81 19.2758 5.13197 18.4625 0.162527L18.44 0.0275269C14.1075 0.361154 10.0026 2.10108 6.75 4.98253L20 18.23L24.485 13.75Z" fill="#82BA91"/>
<path d="M33.25 4.985C29.8496 1.97515 25.5235 0.216483 20.9875 0C21.7264 4.36408 23.5344 8.47731 26.25 11.9725L33.25 4.985Z" fill="#82BA91"/>
<path d="M40.0001 19.0125C39.7815 14.4812 38.0239 10.16 35.0176 6.76251L28.0176 13.7625C31.517 16.4751 35.6337 18.2788 40.0001 19.0125Z" fill="#82BA91"/>
<path d="M5.82495 5.82498L5.81995 5.82998L5.82995 5.81748L5.82495 5.82498Z" fill="#82BA91"/>
<path d="M13.7501 24.485L18.2301 20L4.98009 6.75C2.09955 10.0029 0.360515 14.1078 0.0275879 18.44L0.162588 18.4625C5.13203 19.2758 9.81006 21.3492 13.7501 24.485Z" fill="#82BA91"/>
<path d="M0 20.9875C0.219488 25.5191 1.97795 29.8403 4.985 33.2375L11.985 26.2375C8.48496 23.5244 4.36731 21.7207 0 20.9875L0 20.9875Z" fill="#82BA91"/>
<path d="M6.75 35.0175C10.1509 38.0263 14.4769 39.784 19.0125 40C18.2735 35.636 16.4656 31.5228 13.75 28.0275L6.75 35.0175Z" fill="#82BA91"/>
<path d="M15.5176 26.25C18.6507 30.1885 20.7232 34.8636 21.5376 39.83L21.5601 39.965C25.8917 39.6335 29.9965 37.8962 33.2501 35.0175L20.0001 21.7725L15.5176 26.25Z" fill="#82BA91"/>
<path d="M26.25 15.5175L21.7725 20L35.0225 33.25C37.9029 29.9988 39.6428 25.8958 39.9775 21.565L39.8425 21.5425C34.8712 20.7288 30.1914 18.6545 26.25 15.5175V15.5175Z" fill="#82BA91"/>
</svg>
