<svg width="18" height="14" viewBox="0 0 18 14" fill="none" xmlns="http://www.w3.org/2000/svg">
<path d="M18 1.64882C17.3229 1.93004 16.6068 2.11696 15.8737 2.20382C16.6458 1.76689 17.2233 1.07592 17.4971 0.26132C16.7736 0.669572 15.9823 0.957271 15.1571 1.11203C14.1211 0.0611191 12.5165 -0.280952 11.109 0.249064C9.70141 0.779079 8.77626 2.07376 8.775 3.51525C8.77215 3.78459 8.80083 4.05339 8.8605 4.31668C5.89121 4.17928 3.1242 2.84295 1.25325 0.642749C0.26885 2.24721 0.765682 4.3042 2.38725 5.33775C1.80347 5.32419 1.23166 5.1772 0.72 4.90918V4.94775C0.724357 6.619 1.95894 8.05821 3.67762 8.39561C3.36178 8.47606 3.03593 8.51535 2.709 8.51239C2.47453 8.51654 2.24028 8.49642 2.01038 8.45239C2.49928 9.88163 3.88068 10.8624 5.4585 10.9006C4.15245 11.8739 2.54148 12.402 0.883125 12.4006C0.587947 12.4022 0.292967 12.3857 0 12.3513C1.6875 13.3866 3.65368 13.9344 5.661 13.9285C8.45206 13.9469 11.1344 12.8992 13.1083 11.0198C15.0821 9.14033 16.1827 6.5859 16.164 3.92775C16.164 3.77239 16.1584 3.62239 16.1505 3.47346C16.8781 2.97712 17.5048 2.35884 18 1.64882Z" fill="white"/>
</svg>
