<svg width="20" height="13" viewBox="0 0 20 13" fill="none" xmlns="http://www.w3.org/2000/svg">
<path fill-rule="evenodd" clip-rule="evenodd" d="M10 0.115967C5.45455 0.115967 1.57273 2.76317 0 6.4999C1.57273 10.2366 5.45455 12.8838 10 12.8838C14.5455 12.8838 18.4273 10.2366 20 6.4999C18.4273 2.76317 14.5455 0.115967 10 0.115967ZM10 10.7558C7.49091 10.7558 5.45455 8.84918 5.45455 6.4999C5.45455 4.15061 7.49091 2.24394 10 2.24394C12.5091 2.24394 14.5455 4.15061 14.5455 6.4999C14.5455 8.84918 12.5091 10.7558 10 10.7558ZM7.27273 6.44632C7.27273 5.06299 8.38939 3.94632 9.77273 3.94632C11.1561 3.94632 12.2727 5.06299 12.2727 6.44632C12.2727 7.82966 11.1561 8.94632 9.77273 8.94632C8.38939 8.94632 7.27273 7.82966 7.27273 6.44632Z" fill="#6A6A74"/>
</svg>
