<svg width="17" height="11" viewBox="0 0 17 11" fill="none" xmlns="http://www.w3.org/2000/svg">
<path fill-rule="evenodd" clip-rule="evenodd" d="M14.297 0.092C15.3212 0.146 15.8164 0.288 16.2775 1.06C16.7577 1.831 17 3.159 16.9989 5.5V5.506C16.9989 7.835 16.7577 9.172 16.2764 9.935C15.8153 10.707 15.3106 10.857 14.2959 10.912C13.2812 10.967 10.7196 11 8.5 11C6.28044 11 3.71875 10.98 2.70194 10.915C1.68512 10.85 1.19425 10.701 0.719312 9.938C0.244375 9.175 0 7.837 0 5.509V5.5C0 3.159 0.253937 1.827 0.71825 1.059C1.18256 0.291 1.683 0.155 2.70088 0.091C3.71875 0.027 6.28044 0 8.5 0C10.7196 0 13.2727 0.038 14.297 0.092ZM11.6875 5.5L6.375 2.5V8.5L11.6875 5.5Z" fill="#82BA91"/>
</svg>
