<?xml version="1.0" encoding="UTF-8" standalone="no"?>
<svg
   xmlns:dc="http://purl.org/dc/elements/1.1/"
   xmlns:cc="http://creativecommons.org/ns#"
   xmlns:rdf="http://www.w3.org/1999/02/22-rdf-syntax-ns#"
   xmlns:svg="http://www.w3.org/2000/svg"
   xmlns="http://www.w3.org/2000/svg"
   viewBox="0 0 530.26666 682.66669"
   height="682.66669"
   width="530.26666"
   xml:space="preserve"
   id="svg2"
   version="1.1"><metadata
     id="metadata8"><rdf:RDF><cc:Work
         rdf:about=""><dc:format>image/svg+xml</dc:format><dc:type
           rdf:resource="http://purl.org/dc/dcmitype/StillImage" /></cc:Work></rdf:RDF></metadata><defs
     id="defs6"><clipPath
       id="clipPath20"
       clipPathUnits="userSpaceOnUse"><path
         id="path18"
         d="M 0,5119.99 V 0 h 3976.97 v 5119.99 z" /></clipPath></defs><g
     transform="matrix(1.3333333,0,0,-1.3333333,0,682.66667)"
     id="g10"><g
       transform="scale(0.1)"
       id="g12"><g
         id="g14"><g
           clip-path="url(#clipPath20)"
           id="g16"><path
             id="path22"
             style="fill:#f9854b;fill-opacity:1;fill-rule:nonzero;stroke:none"
             d="M 3976.97,3131.51 C 3976.97,1539.27 2179.46,64.6211 2179.46,64.6211 c -105.03,-86.1719 -276.92,-86.1719 -381.95,0 C 1797.51,64.6211 0,1539.27 0,3131.51 c 0.0117188,1098.21 890.285,1988.48 1988.49,1988.48 1098.2,0 1988.48,-890.27 1988.48,-1988.48" /><path
             id="path24"
             style="fill:#fdddd5;fill-opacity:1;fill-rule:nonzero;stroke:none"
             d="m 1988.49,2131.09 c -551.64,0 -1000.416,448.79 -1000.416,1000.41 0,551.63 448.786,1000.43 1000.416,1000.43 551.62,0 1000.41,-448.79 1000.41,-1000.42 0,-551.62 -448.77,-1000.42 -1000.41,-1000.42" /></g></g></g></g></svg>
