<svg width="20" height="21" viewBox="0 0 20 21" fill="none" xmlns="http://www.w3.org/2000/svg">
<path d="M13.875 9.02343C13.875 8.57037 13.5077 8.20312 13.0547 8.20312H4.60547C4.15241 8.20312 3.78516 8.57037 3.78516 9.02343C3.78516 9.47649 4.15241 9.84374 4.60547 9.84374H13.0547C13.5077 9.84374 13.875 9.47649 13.875 9.02343Z" fill="#097200"/>
<path d="M4.60547 11.4844C4.15241 11.4844 3.78516 11.8516 3.78516 12.3047C3.78516 12.7577 4.15241 13.125 4.60547 13.125H9.73697C10.19 13.125 10.5573 12.7577 10.5573 12.3047C10.5573 11.8516 10.19 11.4844 9.73697 11.4844H4.60547Z" fill="#097200"/>
<path d="M6.53256 19.3594H3.78906C2.88442 19.3594 2.14844 18.6234 2.14844 17.7188V3.28125C2.14844 2.37661 2.88442 1.64062 3.78906 1.64062H13.8744C14.779 1.64062 15.515 2.37661 15.515 3.28125V8.32617C15.515 8.77923 15.8822 9.14648 16.3353 9.14648C16.7884 9.14648 17.1556 8.77923 17.1556 8.32617V3.28125C17.1556 1.47197 15.6836 0 13.8744 0H3.78906C1.97978 0 0.507812 1.47197 0.507812 3.28125V17.7188C0.507812 19.528 1.97978 21 3.78906 21H6.53256C6.98562 21 7.35287 20.6327 7.35287 20.1797C7.35287 19.7266 6.98562 19.3594 6.53256 19.3594Z" fill="#097200"/>
<path d="M18.6074 11.877C17.6478 10.9175 16.0866 10.9174 15.1277 11.8763L10.6241 16.37C10.5284 16.4654 10.4579 16.583 10.4186 16.7123L9.43778 19.9412C9.35083 20.2275 9.42658 20.5384 9.63552 20.7525C9.79203 20.9129 10.0047 21 10.2227 21C10.2957 21 10.3694 20.9902 10.4417 20.9702L13.7527 20.053C13.8889 20.0153 14.0131 19.943 14.1132 19.8431L18.6074 15.3573C19.5669 14.3978 19.5669 12.8366 18.6074 11.877ZM13.1068 18.5295L11.4411 18.991L11.9286 17.3861L14.9674 14.354L16.1277 15.5143L13.1068 18.5295ZM17.4479 14.1967L17.289 14.3553L16.1288 13.1952L16.2872 13.0371C16.6071 12.7173 17.1275 12.7173 17.4473 13.0371C17.7672 13.357 17.7672 13.8774 17.4479 14.1967Z" fill="#097200"/>
<path d="M13.0547 4.92188H4.60547C4.15241 4.92188 3.78516 5.28914 3.78516 5.7422C3.78516 6.19525 4.15241 6.56251 4.60547 6.56251H13.0547C13.5077 6.56251 13.875 6.19525 13.875 5.7422C13.875 5.28914 13.5077 4.92188 13.0547 4.92188Z" fill="#097200"/>
</svg>
