<svg xmlns="http://www.w3.org/2000/svg" viewBox="0 0 30 30"><path d="M24 30c-.2 0-.4-.1-.6-.2L15 23.3l-8.4 6.5c-.3.3-.8.3-1.2 0-.4-.2-.5-.7-.4-1.1l2.8-10.4-7.5-6.6c-.3-.2-.4-.7-.2-1.1.1-.3.5-.6.9-.6h9.3L14 .6c.2-.4.6-.6 1-.6s.8.2.9.6l3.7 9.4H29c.4 0 .8.3.9.6.1.4 0 .8-.3 1.1l-7.5 6.6L25 28.7c.1.4-.1.9-.4 1.1-.2.1-.4.2-.6.2zm-9-9c.2 0 .4.1.6.2l6.6 5.2-2.2-8.1c-.1-.4 0-.8.3-1l6-5.2H19c-.4 0-.8-.2-.9-.6L15 3.7l-3.1 7.7c-.1.4-.5.6-.9.6H3.7l6 5.2c.3.3.4.6.3 1l-2.2 8.1 6.6-5.2c.2 0 .4-.1.6-.1z"/></svg>