<svg xmlns="http://www.w3.org/2000/svg" viewBox="0 0 512 512"><path d="M509.1 55.6L458.4 4.9c-3.9-3.9-10.2-3.9-14.1 0l-240 239.9c-1.1 1.1-1.9 2.4-2.4 3.9l-8.4 25.2-47.3-47.1c-3.9-3.9-10.2-3.9-14.1 0l-40.2 40.1V256c0-5.5-4.5-10-10-10h-39c-5.5 0-10 4.5-10 10v69.6l-30 29.9C0 358.4-.8 362.7.7 366.4s5.2 6.2 9.2 6.2H26V501c0 5.5 4.5 10 10 10h399.7c2.9 0 5.6-1.2 7.5-3.4s2.8-5 2.4-7.9c-2.2-17.5-13.8-32.6-29.6-39.4-5.1-31.3-31.9-55-63.8-55-16.9 0-33.5 6.8-45.8 18.4-4.9-2.2-10.2-3.3-15.7-3.3-20.1 0-36.8 15.4-38.7 35.1v-83h16.1c4 0 7.7-2.4 9.2-6.2s.7-8-2.2-10.9l-35.1-35 25.1-8.4c1.5-.5 2.8-1.3 3.9-2.4L509.1 69.8c3.9-3.9 3.9-10.2 0-14.2zM273.7 276.9l-36.6-36.6L385.6 91.9l11.2 11.2-94.2 94.2c-3.9 3.9-3.9 10.2 0 14.1 2 2 4.5 2.9 7.1 2.9 2.6 0 5.1-1 7.1-2.9l94.2-94.2 11.2 11.2-148.5 148.5zm-68.3 24.4l7.3 7.3-11 3.7 3.7-11zM52.9 266h19v20.7l-19 18.9V266zm69.2 225v-52.9h34.2V491h-34.2zm146-16.3c3.7-2.3 5.5-6.7 4.4-10.9-.4-1.5-.5-3-.5-4.5 0-10.4 8.4-18.8 18.8-18.8 4.2 0 8.2 1.3 11.5 3.9 4.3 3.3 10.5 2.6 13.9-1.6 8.8-10.9 22.3-17.4 36.1-17.4 23.6 0 43.2 18.9 44.6 42.9.3 4.3 3.3 8 7.4 9.1 7.4 1.9 13.7 7 17.6 13.6H254.6c2.7-6.7 7.5-12.5 13.5-16.3zM232.2 491h-56v-62.9c0-5.5-4.5-10-10-10H112c-5.5 0-10 4.5-10 10V491H46V372.5h186.1V491zm-198-138.5L139.1 248l47.2 47.1-6.3 18.7c-1.2 3.6-.3 7.6 2.4 10.2l7.5 7.5c1.9 1.9 4.5 2.9 7.1 2.9 1.1 0 2.1-.2 3.2-.5l18.8-6.3 25 24.9H34.2zm199.7-51l-21.4-21.4 7.6-22.8 2.9-2.9 36.6 36.6-2.9 2.9-22.8 7.6zm202.4-187.2l-36.6-36.6 11.5-11.5 36.6 36.6-11.5 11.5zm25.6-25.6l-36.6-36.6 25.9-25.9 36.6 36.6-25.9 25.9z" fill="#0b812a"/></svg>