<svg width="20" height="20" viewBox="0 0 20 20" fill="none" xmlns="http://www.w3.org/2000/svg">
<path d="M16.9681 0H2.42402C1.08714 0 0 1.08714 0 2.42402V16.9681C0 18.305 1.08714 19.3922 2.42402 19.3922H16.9681C18.305 19.3922 19.3922 18.305 19.3922 16.9681V2.42402C19.3922 1.08714 18.305 0 16.9681 0ZM2.42402 1.61601H16.9681C17.4138 1.61601 17.7761 1.97839 17.7761 2.42402V13.7361H14.5441V10.9081C14.5441 9.69154 13.6428 8.68489 12.4732 8.51267C12.76 8.03035 12.9281 7.46913 12.9281 6.86806C12.9281 5.08594 11.4782 3.63603 9.69608 3.63603C7.91397 3.63603 6.46405 5.08594 6.46405 6.86806C6.46405 7.46913 6.63212 8.03035 6.91895 8.51267C5.74935 8.68489 4.84804 9.69154 4.84804 10.9081V13.7361H1.61601V2.42402C1.61601 1.97839 1.97839 1.61601 2.42402 1.61601ZM6.46405 13.7361V10.9081C6.46405 10.4625 6.82643 10.1001 7.27206 10.1001H12.1201C12.5657 10.1001 12.9281 10.4625 12.9281 10.9081V13.7361H6.46405ZM8.08006 6.86806C8.08006 5.9768 8.80482 5.25204 9.69608 5.25204C10.5873 5.25204 11.3121 5.9768 11.3121 6.86806C11.3121 7.75931 10.5873 8.48407 9.69608 8.48407C8.80482 8.48407 8.08006 7.75931 8.08006 6.86806ZM16.9681 17.7761H2.42402C1.97839 17.7761 1.61601 17.4138 1.61601 16.9681V15.3521H17.7761V16.9681C17.7761 17.4138 17.4138 17.7761 16.9681 17.7761Z" fill="#097200"/>
</svg>
