<svg width="22" height="17" viewBox="0 0 22 17" fill="none" xmlns="http://www.w3.org/2000/svg">
<path d="M15.9839 0H0.909639C0.42154 0 0 0.399354 0 0.90964V15.8189C0 16.307 0.399354 16.7285 0.909639 16.7285H15.9839C16.472 16.7285 16.8935 16.3291 16.8935 15.8189V11.5147L20.1993 14.8205C20.3768 14.998 20.5986 15.0867 20.8427 15.0867C20.9536 15.0867 21.0867 15.0645 21.1977 15.0201C21.5304 14.887 21.7523 14.5542 21.7523 14.1771V2.52924C21.7523 2.17426 21.5304 1.84147 21.1977 1.68616C20.8649 1.55304 20.4655 1.6196 20.2215 1.88584L16.9157 5.1916V0.90964C16.8935 0.399354 16.4942 0 15.9839 0ZM15.0742 7.38805V9.34045V14.9314H1.79709V1.79709H15.0742V7.38805ZM19.933 4.72569V12.025L16.8935 8.98547V7.7874L19.933 4.72569Z" fill="#097200"/>
</svg>
