<svg xmlns="http://www.w3.org/2000/svg" viewBox="0 0 51.8 36.73"><defs><style>.cls-1{fill:none;stroke:#2a8d0e;stroke-miterlimit:10;stroke-width:1.8px}</style></defs><g id="Слой_2" data-name="Слой 2"><g id="Слой_1-2" data-name="Слой 1"><path class="cls-1" d="M37.9 35.76c0 .08 0 .1-.1 0L34 32a.39.39 0 0 0-.24-.1H5a.39.39 0 0 0-.24.1L1 35.8c-.06.06-.1 0-.1 0V18a.39.39 0 0 1 .1-.2L4.8 14a.39.39 0 0 1 .2-.1h28.49a.4.4 0 0 1 .24.1l4.07 4a.39.39 0 0 1 .1.24zm13-13a.39.39 0 0 1-.1.24L38 35.8c-.06.06-.1 0-.1 0V18a.39.39 0 0 1 .1-.24L50.8 5c.06-.06.1 0 .1 0z"/><path class="cls-1" d="M34 13.8a.42.42 0 0 1-.25.1H5c-.08 0-.09 0 0-.09L20.79 1A.47.47 0 0 1 21 .9h26.76c.08 0 .09 0 0 .1z"/><path stroke-linecap="round" fill="none" stroke="#2a8d0e" stroke-miterlimit="10" stroke-width="1.8" d="M47.9.9l3 4"/></g></g></svg>