<svg xmlns="http://www.w3.org/2000/svg" viewBox="0 0 33.2 26"><path d="M30.4 9.9H5.8V3c0-.6.5-1.1 1-1.1.6 0 1.2.6 1.2 1.1s.4.9.9.9 1-.4 1-.9c0-1.7-1.3-3-3.1-3-1.7 0-2.9 1.3-2.9 3v6.8H2.8C1.2 9.8 0 11.1 0 12.6c0 1.2.7 2.2 1.9 2.6 0 1.9.1 4.1 1 5.7.7 1.2 1.7 2 3.2 2.5l-.6 1.1c-.1.2-.2.5-.1.7.1.3.2.5.5.6.2.1.3.1.4.1.4 0 .7-.2.8-.5l.9-1.5c.5.1.9.1 1.5.1h14.2c.5 0 1 0 1.5-.1l.9 1.6c.1.3.5.5.8.5.1 0 .3 0 .4-.1.2-.1.4-.3.5-.6.1-.2 0-.5-.1-.8l-.6-1.1c1.5-.4 2.6-1.3 3.2-2.5.9-1.6 1-3.8 1-5.7 1.1-.3 1.9-1.3 1.9-2.5 0-1.5-1.2-2.8-2.8-2.8zm-1.1 5.6c0 4.6-.6 6.6-5.6 6.6H9.5c-5 0-5.6-2-5.7-6.6h25.5zm2-2.8c0 .4-.5.9-.9.9H2.8c-.5 0-.9-.4-.9-.9s.4-.9.9-.9h27.6c.5 0 .9.5.9.9z"/></svg>