<svg xmlns="http://www.w3.org/2000/svg" viewBox="0 0 51.8 37.8"><defs><style>.cls-1{fill:none;stroke:#2a8d0e;stroke-miterlimit:10;stroke-width:1.8px}</style></defs><g id="Слой_2" data-name="Слой 2"><g id="Слой_1-2" data-name="Слой 1"><rect class="cls-1" x=".9" y="13.9" width="37" height="23" rx=".14" ry=".14"/><path class="cls-1" d="M50.9 22.49a.42.42 0 0 1-.1.25L38 36.8c-.05.06-.1 0-.1 0V14a.39.39 0 0 1 .1-.24L50.8 1c.06-.05.1 0 .1 0z"/><path class="cls-1" d="M38 13.8a.39.39 0 0 1-.24.1H1c-.08 0-.09 0 0-.09L16.79 1A.47.47 0 0 1 17 .9h33.76c.08 0 .1 0 0 .1zm3.9-3.9v23m3-26v22m3-25v22"/></g></g></svg>