<svg xmlns="http://www.w3.org/2000/svg" width="47.719" height="47.75"><path d="M39.885 30.761l-6.021-1.338v-1.9a9.225 9.225 0 0 0 3.85-7.489v-4.1a3.611 3.611 0 0 0 .438-.515h3.412v-1.54h-1.54v-1.54a11.59 11.59 0 0 0-9.341-11.312A1.536 1.536 0 0 0 29.244.019h-1.538a1.537 1.537 0 0 0-1.439 1.008 11.59 11.59 0 0 0-9.34 11.312v1.54h-1.54v1.54h3.411a3.626 3.626 0 0 0 .439.516v4.1a9.227 9.227 0 0 0 3.849 7.489v1.9l-6.021 1.338a9.95 9.95 0 0 0-7.838 9.771v7.217h38.5v-7.218a9.95 9.95 0 0 0-7.842-9.771zM16.925 46.21h-6.16v-5.678a8.409 8.409 0 0 1 6.16-8.141V46.21zm17.312-15.127l-2.876 3.835-2.1-2.1 3.933-1.967zm-5.763.407l-3.85-1.926V28.42a9.144 9.144 0 0 0 7.7 0v1.144zm-8.551-17.193l-.213-.426h-1.246v-1.54a10.054 10.054 0 0 1 7.7-9.727v3.567h1.54V1.55h1.54v4.62h1.54V2.603a10.053 10.053 0 0 1 7.7 9.727v1.54h-1.246l-.212.426a2.008 2.008 0 0 1-1.8 1.114h-13.5a2 2 0 0 1-1.803-1.113zm.851 2.521a3.542 3.542 0 0 0 .952.133h13.5a3.58 3.58 0 0 0 .951-.133v2.737l-1.029.514a6.951 6.951 0 0 1-3.1.732h-1.263a.3.3 0 0 1-.282-.2l-.284-.85a1.839 1.839 0 0 0-3.489 0l-.281.848a.3.3 0 0 1-.284.205h-1.259a6.956 6.956 0 0 1-3.1-.732l-1.029-.514v-2.737zm.12 4.519l.22.11a8.513 8.513 0 0 0 3.787.894h1.263a1.839 1.839 0 0 0 1.745-1.258l.282-.847a.31.31 0 0 1 .566 0l.283.85a1.839 1.839 0 0 0 1.744 1.256h1.263a8.513 8.513 0 0 0 3.787-.894l.221-.11a7.691 7.691 0 0 1-15.161-.001zm2.86 9.514l3.933 1.967-2.1 2.1-2.876-3.835zm3.95 15.359h-9.24v-1.54h9.24v1.54zm0-3.08h-9.24v-11.1l2.6-.577 6.642 8.856v2.824zm-1.183-6.968l1.953-1.953 1.954 1.954-1.954 2.6zM38.484 46.21h-9.24v-1.54h9.24v1.54zm0-3.08h-9.24v-2.824l6.643-8.857 2.6.578v11.1zm7.7 3.08h-6.16V32.391a8.41 8.41 0 0 1 6.16 8.141v5.678zm-10.01-33.879h-4.64a3.809 3.809 0 0 0 .79-2.31 3.85 3.85 0 0 0-7.7 0 3.809 3.809 0 0 0 .79 2.31h-4.64v1.54h15.4v-1.54zm-7.7 0a2.31 2.31 0 1 1 2.31-2.31 2.313 2.313 0 0 1-2.31 2.31zm2.31 27.719h6.16v1.54h-6.16v-1.54zM11.535 23.88v-.13a3.076 3.076 0 0 0-.439-1.584l-2.641-4.4-2.641 4.4a3.085 3.085 0 0 0-.439 1.585v.13a3.08 3.08 0 1 0 6.16-.001zm-4.62 0v-.13a1.546 1.546 0 0 1 .219-.792l1.321-2.2 1.32 2.2a1.531 1.531 0 0 1 .22.791v.13a1.54 1.54 0 1 1-3.08.001zm3.85 7.7v-1.942a7.028 7.028 0 0 0 .672-.277l1.374 1.372 3.266-3.267-1.373-1.373a7.144 7.144 0 0 0 .278-.672h1.943v-4.62h-1.942a7.322 7.322 0 0 0-.278-.673l1.373-1.373-3.267-3.267-1.373 1.373a7.035 7.035 0 0 0-.672-.278v-1.942H6.145v1.942a6.827 6.827 0 0 0-.672.278l-1.374-1.373-3.266 3.267 1.373 1.373c-.1.219-.2.444-.279.673H-.015v4.62h1.942c.081.228.175.453.278.672L.832 27.466l3.266 3.267 1.374-1.372a7.2 7.2 0 0 0 .673.277v1.942h4.62zm-5.043-3.83l-.514-.3-1.109 1.108-1.089-1.089 1.109-1.109-.3-.514a5.378 5.378 0 0 1-.575-1.385l-.148-.577H1.528v-1.539h1.568l.148-.578a5.385 5.385 0 0 1 .575-1.386l.3-.513-1.109-1.109 1.089-1.09 1.109 1.109.514-.3a5.358 5.358 0 0 1 1.385-.573l.578-.148v-1.568h1.54v1.561l.577.149a5.344 5.344 0 0 1 1.385.573l.515.3 1.109-1.109 1.088 1.09-1.108 1.109.3.513a5.347 5.347 0 0 1 .574 1.386l.149.577h1.568v1.539h-1.568l-.149.578a5.347 5.347 0 0 1-.574 1.386l-.3.514 1.108 1.108-1.088 1.09-1.105-1.103-.515.3a5.344 5.344 0 0 1-1.385.573l-.577.148v1.568h-1.54v-1.568l-.578-.149a5.393 5.393 0 0 1-1.389-.572z" fill="#0b812a" fill-rule="evenodd"/></svg>