<svg width="19" height="18" viewBox="0 0 19 18" fill="none" xmlns="http://www.w3.org/2000/svg">
<path d="M19 9.02342C19 8.19992 18.3325 7.53238 17.509 7.53238H2.1512C1.3277 7.53238 0.660156 8.19992 0.660156 9.02342C0.660156 9.84693 1.3277 10.5145 2.1512 10.5145H17.509C18.3325 10.5145 19 9.84693 19 9.02342Z" fill="#097200"/>
<path d="M2.1512 14.4966C1.3277 14.4966 0.660156 15.1641 0.660156 15.9876C0.660156 16.8111 1.3277 17.4786 2.1512 17.4786H11.4785C12.302 17.4786 12.9695 16.8111 12.9695 15.9876C12.9695 15.1641 12.302 14.4966 11.4785 14.4966H2.1512Z" fill="#097200"/>
<path d="M17.509 0.56823H2.1512C1.3277 0.56823 0.660156 1.23577 0.660156 2.05927C0.660156 2.88278 1.3277 3.55032 2.1512 3.55032H17.509C18.3325 3.55032 19 2.88278 19 2.05927C19 1.23577 18.3325 0.56823 17.509 0.56823Z" fill="#097200"/>
</svg>
