<svg xmlns="http://www.w3.org/2000/svg" width="54.281" height="46.25"><path data-name="Forma 1" d="M37.122 18.595a2.78 2.78 0 0 0-3.929 0l-16.913 16.9a2.778 2.778 0 1 0 3.862 3.994l.068-.068 16.913-16.9a2.775 2.775 0 0 0-.001-3.926zm-1.259 2.668l-16.912 16.9a1.022 1.022 0 0 1-1.411 0 .994.994 0 0 1 0-1.407l16.912-16.9a1 1 0 0 1 1.411 1.406zm-15.394-2.929a4.448 4.448 0 1 0 4.451 4.448 4.449 4.449 0 0 0-4.451-4.448zm0 7.116a2.669 2.669 0 1 1 0-5.337 2.669 2.669 0 1 1 0 5.337zm12.462 5.337a4.448 4.448 0 1 0 4.451 4.448 4.45 4.45 0 0 0-4.451-4.448zm0 7.117a2.669 2.669 0 1 1 2.67-2.669 2.669 2.669 0 0 1-2.67 2.669zM53.863 16.13L27.163.119a.892.892 0 0 0-.928.006L.417 16.136a.89.89 0 0 0 .469 1.646h7.121v27.58a.89.89 0 0 0 .89.889h35.606a.89.89 0 0 0 .89-.889v-27.58h8.011a.89.89 0 0 0 .459-1.652zm-10.25 28.337H9.787V17.396L26.699 7.255l16.913 10.141v27.071zm1.136-28.464L27.159 5.456a.893.893 0 0 0-.917 0L8.651 16.003H4.008l22.7-14.079 23.479 14.079h-5.442z" fill="#0b812a" fill-rule="evenodd"/></svg>