<svg xmlns="http://www.w3.org/2000/svg" width="44.063" height="47.281"><path d="M39.148 32.44l-.035-.008-8.132-1.625v-3.848a6.483 6.483 0 0 0 2.453-5.08v-6.172a12.37 12.37 0 0 0 2.146-1.261.766.766 0 0 0-.459-1.38h-.074a13.061 13.061 0 0 0-4.066-8.7v-.343a.766.766 0 0 0-1.176-.647 12.922 12.922 0 0 0-4.595-2.183 1.586 1.586 0 0 0-1.537-1.206h-3.271a1.586 1.586 0 0 0-1.537 1.206 12.922 12.922 0 0 0-4.595 2.183.766.766 0 0 0-1.176.647v.343a13.061 13.061 0 0 0-4.066 8.7h-.074a.766.766 0 0 0-.459 1.38 12.37 12.37 0 0 0 2.146 1.261v6.172a6.483 6.483 0 0 0 2.453 5.08v3.848l-8.132 1.625-.035.008A6.479 6.479 0 0 0 .01 38.734v6.159a2.4 2.4 0 0 0 2.4 2.4h39.251a2.4 2.4 0 0 0 2.4-2.4v-6.159a6.479 6.479 0 0 0-4.913-6.294zm-3.976 13.321H8.903v-4.138a1.689 1.689 0 0 1 1.686-1.686h22.9a1.689 1.689 0 0 1 1.686 1.686v4.138zM18.6 30.07a7.2 7.2 0 0 0 3.438.876 7.2 7.2 0 0 0 3.437-.876l3.973-2.166v3.093c0 1.909-1.941 4.138-7.41 4.138s-7.413-2.229-7.413-4.138v-3.093zm-3.975 8.335v-3.973c1.526 1.415 4.113 2.236 7.411 2.236s5.884-.821 7.41-2.236v3.973H14.625zm-1.533 0h-1.738v-5.688l1.738-.347v6.035zm19.625 0h-1.738V32.37l1.738.347v5.688zm-10.681-22.07a27.9 27.9 0 0 1-9.864-1.644v-.093h19.727v.093a27.9 27.9 0 0 1-9.861 1.644zM14.625 5.05a11.408 11.408 0 0 1 4.191-2.256v10.271h-4.191V5.05zm10.63-2.256a11.408 11.408 0 0 1 4.191 2.256v8.015h-4.191V2.795zm8.251 10.271h-2.527V6.62a11.484 11.484 0 0 1 2.529 6.446zM20.402 1.52h3.271a.051.051 0 0 1 .051.051v11.495h-3.373v-11.5a.051.051 0 0 1 .051-.046zm-7.308 5.1v6.445h-2.527a11.484 11.484 0 0 1 2.527-6.444zm-.92 15.258v-5.544a24.743 24.743 0 0 0 4.191 1.07v1.331a.767.767 0 0 0 1.533 0v-1.109a35.671 35.671 0 0 0 8.279 0v1.109a.767.767 0 0 0 1.533 0v-1.331a24.743 24.743 0 0 0 4.191-1.07v5.544a4.953 4.953 0 0 1-2.583 4.35l-4.577 2.5a5.67 5.67 0 0 1-2.7.688 5.67 5.67 0 0 1-2.7-.688l-4.576-2.5a4.952 4.952 0 0 1-2.591-4.349zM1.543 44.892v-6.159a4.95 4.95 0 0 1 3.738-4.8l4.542-.907V38.5a3.224 3.224 0 0 0-2.453 3.125v4.138H2.412a.869.869 0 0 1-.869-.87zm40.989 0a.869.869 0 0 1-.869.868h-4.958v-4.138a3.223 3.223 0 0 0-2.453-3.125v-5.474l4.542.907a4.949 4.949 0 0 1 3.738 4.8v6.159zm-24.2-19.824a7.531 7.531 0 0 0 7.405 0 .766.766 0 0 0-.863-1.267 6.056 6.056 0 0 1-5.679 0 .766.766 0 1 0-.86 1.268z" fill="#0b812a" fill-rule="evenodd"/></svg>