<svg xmlns="http://www.w3.org/2000/svg" viewBox="0 0 51.8 36.8"><defs><style>.cls-1{fill:none;stroke:#2a8d0e;stroke-miterlimit:10;stroke-width:1.8px}</style></defs><g id="Слой_2" data-name="Слой 2"><g id="Слой_1-2" data-name="Слой 1"><path class="cls-1" d="M50.9 22.76a.39.39 0 0 1-.1.24L38 35.8c-.06.06-.1 0-.1 0V31a.39.39 0 0 1 .1-.24L50.8 18c.06-.06.1 0 .1 0zM38 13.8a.39.39 0 0 1-.24.1H1c-.08 0-.09 0 0-.09L15.79 1A.44.44 0 0 1 16 .9h34.76c.08 0 .1 0 0 .1z"/><path class="cls-1" d="M50.9 5.76a.39.39 0 0 1-.1.24L38 18.8c-.06.06-.1 0-.1 0V14a.39.39 0 0 1 .1-.24L50.8 1c.06-.06.1 0 .1 0zM37.76 18.9a.14.14 0 0 0 .14-.14V14a.14.14 0 0 0-.14-.14H1a.14.14 0 0 0-.1.14v4.72a.14.14 0 0 0 .1.18h15.76a.14.14 0 0 1 .14.14v11.72a.14.14 0 0 1-.14.14H1a.14.14 0 0 0-.1.1v4.72a.14.14 0 0 0 .1.18h36.76a.14.14 0 0 0 .14-.14V31a.14.14 0 0 0-.14-.14H22a.14.14 0 0 1-.14-.14V19a.14.14 0 0 1 .14-.1z"/><path d="M.9 30.9l14-12m7 12l12-12m17-1h-12" stroke-linecap="round" fill="none" stroke="#2a8d0e" stroke-miterlimit="10" stroke-width="1.8"/></g></g></svg>