<svg xmlns="http://www.w3.org/2000/svg" viewBox="0 0 512 381"><g fill="#2a8d0e"><path d="M422 221c-5.5 0-10 4.5-10 10s4.5 10 10 10 10-4.5 10-10-4.5-10-10-10z"/><path d="M500.7 163.6c-4.3-5.2-65.7-80.3-75-91.6-5.7-6.9-14-10.9-22.9-11 6.3-8.2 10.1-18.4 10.2-29.4V9.9c0-5.5-4.5-9.9-10-9.9H91c-4 0-7.6 2.3-9.2 6L19.1 148.1C-33.8 267.2 37.5 300.2 60.9 311c.3.1.6.3.9.4-.5 3.1-.8 6.3-.8 9.6 0 33.1 26.9 60 60 60s60-26.9 60-60h171c0 33.1 26.9 60 60 60s60-26.9 60-60h10c16.5 0 30-13.5 30-30v-95.7c0-11.1-3.7-22.4-11.3-31.7zM488.4 181H372v-60h68l45.2 55.3c1.2 1.4 2.3 3 3.2 4.7zM121 361c-22.1 0-40-17.9-40-40 0-4 .6-7.9 1.7-11.6 5.1-16.7 20.8-28.4 38.3-28.4 18.9 0 35.4 13.5 39.2 32 .5 2.6.8 5.2.8 8 0 22-17.9 40-40 40zm56.6-60c-8.4-23.6-31-40-56.6-40-22.5 0-42.5 12.2-52.8 31.4-23.5-10.9-75-36.6-30.8-136.2L97.5 19.9h295.6v11.5c-.2 16.3-14 29.6-30.6 29.6H322c-5.5 0-10 4.5-10 10v230H177.6zM412 361c-22.1 0-40-17.9-40-40 0-2.7.3-5.4.8-8 3.8-18.5 20.2-32 39.2-32s35.4 13.5 39.2 32c.5 2.6.8 5.2.8 8 0 22-17.9 40-40 40zm70-60h-13.4c-8.4-23.6-31-40-56.6-40s-48.2 16.4-56.6 40H332V81h70.5c3 0 5.8 1.3 7.7 3.7l13.4 16.3H362c-5.5 0-10 4.5-10 10v80c0 5.5 4.5 10 10 10h130v20h-30c-5.5 0-10 4.5-10 10s4.5 10 10 10h30v50c0 5.5-4.5 10-10 10z"/><path d="M121 301c-11 0-20 9-20 20s9 20 20 20 20-9 20-20-9-20-20-20zm291 0c-11 0-20 9-20 20s9 20 20 20 20-9 20-20-9-20-20-20zM264.3 178.6c-2.3-5-8.2-7.2-13.3-4.9-5 2.3-7.2 8.2-4.9 13.3 1.4 3.1 1.2 6.6-.7 9.5s-4.9 4.6-8.4 4.6h-71.9l2.9-2.9c3.9-3.9 3.9-10.2 0-14.1s-10.2-3.9-14.1 0l-20 20-.1.1c-3.8 3.9-3.7 10.1 0 13.9l.1.1 20 20c3.9 3.9 10.2 3.9 14.1 0s3.9-10.2 0-14.1l-2.9-2.9H237c10.3 0 19.7-5.1 25.2-13.8 5.6-8.8 6.4-19.5 2.1-28.8zM149.2 67.4c4.3 3.4 10.6 2.7 14.1-1.6 2-2.6 5.3-3.9 8.6-3.6 3.4.3 6.2 2.1 7.9 5.1l36.3 65.4-5.9-1.4c-5.4-1.2-10.8 2.1-12 7.5s2.1 10.8 7.5 12l27.6 6.4c5.8 1.3 11.9-2.8 12.4-9.1l6-26c1.2-5.4-2.1-10.8-7.5-12s-10.8 2.1-12 7.5l-.5 2-34.4-62c-4.9-8.8-13.7-14.5-23.7-15.3s-19.7 3.3-25.9 11.1c-3.5 4.3-2.8 10.6 1.5 14zm-17.4 54.8l1.1 4c1.5 5.3 7.1 8.4 12.4 6.9s8.4-7.1 6.9-12.4l-7.7-26.8c-1.3-5.5-7-8.9-12.5-7.3l-27.2 7.8c-5.3 1.5-8.4 7.1-6.9 12.4s7.1 8.4 12.4 6.9l4-1.1-35.5 63.9c-4.5 8-5 17.5-1.5 26s10.6 14.9 19.4 17.4c.9.3 1.9.4 2.8.4 4.3 0 8.3-2.8 9.6-7.2 1.5-5.3-1.5-10.9-6.8-12.4-2.9-.8-5.2-3-6.4-5.8-.7-1.6-1.5-5 .5-8.6l35.4-64.1z"/></g></svg>