<svg xmlns="http://www.w3.org/2000/svg" viewBox="-49 141 388.006 468"><g fill="#2a8d0e"><path d="M336.9 544.868l-46.925-60.326a72.622 72.622 0 0 0 36.844-28.435l.065-.105c11.855-20.494 6.585-45.042 1.472-68.853a182.492 182.492 0 0 1-5.354-36.15 182.551 182.551 0 0 1 5.37-36.254l.06-.277c5.042-23.646 10.256-48.098-1.549-68.471l.001.001c-12.271-21.201-36.547-28.896-60.097-36.358a169.604 169.604 0 0 1-32.78-12.827 161.159 161.159 0 0 1-26.295-21.335C190.301 159.317 170.568 141 145 141c-25.548 0-45.296 18.313-62.777 34.524a160.837 160.837 0 0 1-26.229 21.288 169.834 169.834 0 0 1-32.846 12.817c-23.476 7.44-47.751 15.134-60.023 36.337-11.856 20.494-6.586 45.042-1.472 68.852 2.986 11.826 4.784 24 5.345 36.183a182.616 182.616 0 0 1-5.37 36.254l-.06.282c-5.042 23.645-10.255 48.095 1.55 68.466l.065.104A72.613 72.613 0 0 0 .062 484.535l-46.961 60.325c-3.384 4.354-2.596 10.648 1.757 14.033a9.923 9.923 0 0 0 7.382 2.026l55.5-6.931 13.649 47.761a9.958 9.958 0 0 0 7.72 7.071c.626.119 1.262.179 1.89.179h.008a9.935 9.935 0 0 0 7.892-3.86l49.736-63.973a76.061 76.061 0 0 0 46.229 19.828l.135.01.135-.01a76.062 76.062 0 0 0 46.23-19.829l49.731 63.944a10.07 10.07 0 0 0 7.903 3.89c.629 0 1.266-.06 1.9-.181a9.954 9.954 0 0 0 7.71-7.069l13.649-47.753 55.499 6.932c5.461.683 10.479-3.206 11.168-8.678a9.927 9.927 0 0 0-2.024-7.382zm-356.48-98.869c-7.988-13.814-3.739-33.615.744-54.511a198.313 198.313 0 0 0 5.835-40.408l.003-.08-.003-.08a197.889 197.889 0 0 0-5.811-40.34c-4.5-20.958-8.75-40.754-.762-54.576 8.416-14.489 28.014-20.711 48.694-27.277a187.864 187.864 0 0 0 36.809-14.555l.151-.088a178.333 178.333 0 0 0 29.784-23.953C112.03 175.15 127.3 161 145 161c17.708 0 32.971 14.15 49.074 29.079a178.642 178.642 0 0 0 29.847 24.005l.151.088a187.801 187.801 0 0 0 36.774 14.543c20.754 6.589 40.358 12.812 48.734 27.286 7.988 13.816 3.738 33.617-.744 54.51a198.252 198.252 0 0 0-5.835 40.409l-.004.08.004.08a198.161 198.161 0 0 0 5.818 40.376c4.496 20.945 8.737 40.726.754 54.539-8.415 14.49-28.014 20.712-48.693 27.278a187.829 187.829 0 0 0-36.809 14.555l-.151.088a178.364 178.364 0 0 0-29.784 23.953C177.97 526.85 162.7 541 145 541c-17.707 0-32.969-14.15-49.074-29.079a178.672 178.672 0 0 0-29.847-24.005l-.152-.088a187.73 187.73 0 0 0-36.773-14.543C8.4 466.697-11.204 460.474-19.58 445.999zm39.661 45.379l3.172 1.015a169.506 169.506 0 0 1 32.74 12.795 161.156 161.156 0 0 1 26.297 21.337l1.403 1.297L45.2 577.311l-10.589-37.062a9.943 9.943 0 0 0-9.583-7.248c-.419 0-.843.025-1.269.079l-40.008 5.001 36.33-46.703zm187.696 35.098a160.791 160.791 0 0 1 26.229-21.288 169.88 169.88 0 0 1 32.852-12.818l3.094-.99 36.337 46.701-40.008-5c-4.925-.618-9.485 2.4-10.852 7.169l-10.627 37.064-38.487-49.483 1.462-1.355z"/><path d="M145 487.5c75.267 0 136.5-61.233 136.5-136.502-.088-75.178-61.32-136.41-136.498-136.498H145C69.734 214.5 8.5 275.733 8.5 351S69.734 487.5 145 487.5zm0-18.699c-64.956 0-117.801-52.846-117.801-117.801S80.044 233.199 145 233.199s117.801 52.846 117.801 117.799c-.076 64.88-52.923 117.727-117.801 117.803z"/><path d="M55.789 317.191l9.58 14.721 23.162-17.583v103.446h19.12V290.121H92.392zm125.721-28.15c-29.425 0-48.438 25.513-48.438 64.998 0 39.375 19.014 64.817 48.438 64.817s48.438-25.442 48.438-64.817c-.001-39.485-19.013-64.998-48.438-64.998zm0 111.775c-17.862 0-28.959-17.925-28.959-46.778 0-28.965 11.097-46.958 28.959-46.958s28.958 17.993 28.958 46.958c0 29.291-10.825 46.778-28.958 46.778z"/></g></svg>