<svg version="1.1" id="х" xmlns="http://www.w3.org/2000/svg" x="0" y="0" viewBox="0 0 56 56" xml:space="preserve"><style>.st2{fill:#fff}</style><path d="M28 2C13.7 2 2 13.7 2 28s11.7 26 26 26 26-11.7 26-26S42.3 2 28 2z" fill="#008b00"/><path class="st2" d="M28 56C12.6 56 0 43.4 0 28S12.6 0 28 0s28 12.6 28 28-12.6 28-28 28zm0-54C13.7 2 2 13.7 2 28s11.7 26 26 26 26-11.7 26-26S42.3 2 28 2z" opacity=".8"/><path class="st2" d="M39 25h-8v-8c0-1.1-.9-2-2-2h-2c-1.1 0-2 .9-2 2v8h-8c-1.1 0-2 .9-2 2v2c0 1.1.9 2 2 2h8v8c0 1.1.9 2 2 2h2c1.1 0 2-.9 2-2v-8h8c1.1 0 2-.9 2-2v-2c0-1.1-.9-2-2-2z"/></svg>