<svg xmlns="http://www.w3.org/2000/svg" width="32.562" height="48.094"><path data-name="Forma 1" d="M28.847 30.775l-7.921-2.641v-.217h6.98V13.183h1.551V10.25l-1.7-.424a11.628 11.628 0 0 0-22.975 0l-1.7.424v2.932h1.551v14.734h6.979v.217l-7.92 2.64a5.421 5.421 0 0 0-3.712 5.15V48.08h32.571V35.924a5.42 5.42 0 0 0-3.704-5.149zm-2.492-4.409h-5.192a8.547 8.547 0 0 0 3.322-4.7 3.839 3.839 0 0 0 1.87-.749v5.448zm-1.584-6.336c.016-.213.033-.426.033-.643V15.65a2.312 2.312 0 0 1-.033 4.38zm1.584-5.28a3.85 3.85 0 0 0-1.551-.716v-.855h1.551v1.571zM16.273 1.55a9.947 9.947 0 0 1 1.151.074l-.9 2.252h-.5l-.9-2.252a9.976 9.976 0 0 1 1.149-.074zm-5.428 1.611v3.042h1.551v-3.86a9.94 9.94 0 0 1 1.175-.42l1.4 3.5h2.6l1.4-3.5a9.94 9.94 0 0 1 1.175.42v3.86h1.551V3.161a10.1 10.1 0 0 1 4.4 6.251l-9.641-2.411-.189-.047-9.831 2.458a10.1 10.1 0 0 1 4.409-6.25zm-6.2 8.3l11.632-2.908 11.633 2.908v.17H4.641v-.17zm3.1 4.19v3.735c0 .217.016.43.032.643a2.313 2.313 0 0 1-.034-4.379zm-1.551-.9V13.18h1.551v.854a3.852 3.852 0 0 0-1.553.716zm0 11.612v-5.448a3.835 3.835 0 0 0 1.87.749 8.547 8.547 0 0 0 3.322 4.7H6.194zm3.1-6.979v-6.2h13.959v6.2a6.98 6.98 0 0 1-13.959.003zm10.081 7.938v1.218a3.678 3.678 0 0 1-6.2 0v-1.216a8.423 8.423 0 0 0 6.2.001zm-17.836 19.2v-4.653h3.877v3.1h6.2A2.324 2.324 0 0 1 13.8 46.52H1.539zm13.183-1.527a3.9 3.9 0 0 0-1.551-1.246v-2.655h1.551v3.9zm-1.391-5.445l.619-.928.619.928h-1.238zm3.8 6.979h-.854v-7.214l-2.326-3.49-2.327 3.49v4.112h-1.551v-8.53h12.408v8.53h-1.55a3.885 3.885 0 0 0-3.8 3.102zm13.881 0h-12.27a2.325 2.325 0 0 1 2.184-1.551h6.2v-3.1h3.878v4.653zm0-6.2h-3.881v-4.653H25.58v7.755h-1.549V33.35H8.521v10.081H6.97v-7.755H5.419v4.653H1.542v-4.4a3.874 3.874 0 0 1 2.651-3.679l7.82-2.606a5.293 5.293 0 0 0 8.526 0l7.82 2.606a3.875 3.875 0 0 1 2.652 3.679v4.4zM20.151 14.734a.776.776 0 1 1-.776.776.775.775 0 0 1 .776-.776zm-7.755 0a.776.776 0 1 1-.776.776.775.775 0 0 1 .776-.776zm5.428 6.2a1.551 1.551 0 0 1-3.1 0h-1.553a3.1 3.1 0 1 0 6.2 0H17.82z" fill="#0b812a" fill-rule="evenodd"/></svg>