<svg xmlns="http://www.w3.org/2000/svg" viewBox="0 0 34.4 21.2"><path d="M31.9 9.2V3.8c0-2.1-1.7-3.9-3.8-3.9H6.6c-2.1.1-3.8 1.8-3.8 4v5.4C1.3 9.2.1 10.4 0 12v3.6c0 1.5 1.2 2.8 2.6 2.8h2.8v2c0 .7.5 1.1 1.1 1.1.7 0 1-.5 1-1.1v-2H27v2c0 .7.5 1.1 1 1.1.7 0 1-.5 1-1.1v-2h2.8c1.5 0 2.7-1.2 2.7-2.8V12c0-1.6-1.2-2.8-2.6-2.8zm-2-5.1v5.1h-.5V8c0-1.1-.9-2.1-2-2.1h-7.6c-1.1 0-2.1.9-2.1 2.1v1.2h-.5V8c0-1.1-.9-2.1-2.1-2.1H7.5c-1.2 0-2.1.9-2.1 2.1v1.2h-.5V3.9c0-1 .8-1.8 1.8-1.8h21.4c1 0 1.8.8 1.8 1.8v.2zM15.1 8v1.2H7.4V8h7.7zm12.3 0v1.2h-7.6V8h7.6zM2.1 12c0-.4.3-.7.6-.7h29.2c.4 0 .7.3.7.7v3.6c0 .4-.3.7-.7.7H2.8c-.4 0-.6-.3-.6-.7V12z"/></svg>