<svg id="Capa_1" enable-background="new 0 0 511.979 511.979" height="512" viewBox="0 0 511.979 511.979" width="512" xmlns="http://www.w3.org/2000/svg"><path d="m151 190.609c0 24.813 20.187 45 45 45s45-20.187 45-45-20.187-45-45-45-45 20.187-45 45zm60 0c0 8.271-6.729 15-15 15s-15-6.729-15-15 6.729-15 15-15 15 6.729 15 15z"/><circle cx="256" cy="280.609" r="15"/><circle cx="166" cy="280.609" r="15"/><circle cx="286" cy="190.609" r="15"/><path d="m502.919 206.759-395.678-170.169c-4.897-2.107-10.547-1.454-14.836 1.713l-.456.337c-27.889 20.577-51.015 47.692-66.878 78.415-16.635 32.219-25.071 67.06-25.071 103.554 0 83.137 45.473 159.365 118.685 198.941l.458.247c4.298 2.319 9.459 2.399 13.829.215l86.768-43.384c9.479-4.74 20.261 2.25 20.261 12.522v41.459c0 25.364 20.636 46 46 46s46-20.636 46-46v-90c0-7.72 6.28-14 14-14s14 6.28 14 14c0 25.364 20.636 46 46 46s46-20.636 46-46v-80.207l51.824-26.509c11.261-5.76 10.763-22.115-.906-27.134zm-376.243 182.86c-59.813-35.2-96.676-99.308-96.676-169.01 0-31.658 7.311-61.868 21.728-89.791 12.551-24.307 30.345-46.013 51.741-63.194l33.227 14.29c-18.18 11.723-33.961 26.946-46.473 45.032-19.118 27.635-29.223 60.023-29.223 93.663 0 65.599 39.122 125.524 100.239 151.728zm303.493-151.747c-5.014 2.565-8.169 7.722-8.169 13.354v89.382c0 8.823-7.178 16-16 16s-16-7.177-16-16c0-24.262-19.738-44-44-44s-44 19.738-44 44v90c0 8.822-7.178 16-16 16s-16-7.178-16-16v-41.458c0-24.283-19.744-44.039-44.013-44.039-6.832 0-13.448 1.576-19.664 4.684l-6.526 3.263c-63.234-12.445-108.797-67.643-108.797-132.449 0-53.998 31.538-101.998 80.758-123.615l290 124.72z"/><path d="m346 266.609c8.822 0 16-7.178 16-16 0-8.823-7.178-16-16-16s-16 7.177-16 16c0 8.822 7.178 16 16 16z"/></svg>