<svg id="Capa_1" enable-background="new 0 0 512 512" height="512" viewBox="0 0 512 512" width="512" xmlns="http://www.w3.org/2000/svg"><path d="m241 225c0 8.27-6.73 15-15 15s-15-6.73-15-15 6.73-15 15-15 15 6.73 15 15z"/><path d="m361 314.99s0 0-.01 0c-41.35 0-74.99-33.64-74.99-74.99 0-24.51 11.82-46.31 30.06-60h-.06c-24.81 0-45-20.19-45-45v-44.68c-10.07-.42-19.93-.42-30 0v14.68c0 24.81-20.19 45-45 45s-45-20.19-45-45v-.33c-38.55 10.51-69.9 24.54-89.75 34.67l88.37 177.57c13.7-19.47 36.34-31.91 61.38-31.91 41.35 0 75 33.64 75 75 0 20.03-7.8 38.87-21.97 53.03-14.16 14.16-32.99 21.96-53.02 21.96-.01 0-.01 0-.01 0-.88 0-1.76-.02-2.64-.05l34.21 68.74c2.54 5.1 7.74 8.32 13.43 8.32s10.89-3.22 13.43-8.32l93.92-188.73c-.78.03-1.57.04-2.35.04zm-135-44.99c-24.81 0-45-20.19-45-45s20.19-45 45-45 45 20.19 45 45-20.19 45-45 45z"/><path d="m361 104.67c38.55 10.51 69.9 24.54 89.75 34.67l-28.55 57.37c-13.74-19.35-36.33-31.71-61.2-31.71-4.24 0-8.41.35-12.46 1.04 7.72-8.08 12.46-19.02 12.46-31.04z"/><path d="m481.24 78.07-17.13 34.41c-24.45-12.45-65.05-30.33-114.78-41.65-9.378-2.129-18.33 5.007-18.33 14.63v49.54c0 8.27-6.73 15-15 15s-15-6.73-15-15v-58.8c0-7.82-6.01-14.33-13.81-14.95-10.44-.83-20.94-1.25-31.19-1.25s-20.75.42-31.19 1.25c-7.8.62-13.81 7.13-13.81 14.95v28.8c0 8.27-6.73 15-15 15s-15-6.73-15-15v-19.54c0-9.618-8.946-16.76-18.33-14.63-49.73 11.32-90.33 29.2-114.78 41.65l-17.13-34.41c-3.59-7.22-.83-15.98 6.24-19.85 32.05-17.5 117.53-58.22 219-58.22s186.95 40.72 219 58.22c7.07 3.87 9.83 12.63 6.24 19.85z"/><path d="m361 195c-24.853 0-45 20.147-45 45 0 31.059 31.465 54.758 64.257 40.981l24.84-49.914c-4.146-20.571-22.305-36.067-44.097-36.067z"/><path d="m256 360c0-24.853-20.147-45-45-45-21.932 0-40.193 15.691-44.184 36.458l24.571 49.373c32.92 14.1 64.613-9.66 64.613-40.831z"/></svg>