<svg width="56" height="56" viewBox="0 0 56 56" fill="none" xmlns="http://www.w3.org/2000/svg">
<path fill-rule="evenodd" clip-rule="evenodd" d="M28 56C43.464 56 56 43.464 56 28C56 12.536 43.464 0 28 0C12.536 0 0 12.536 0 28C0 43.464 12.536 56 28 56Z" fill="#82BA91"/>
<path d="M38.9174 17.8617C39.6838 16.8957 41.1135 16.7146 42.1106 17.4572C43.1076 18.1997 43.2946 19.5848 42.5281 20.5508L26.9863 40.1383C26.1949 41.1356 24.7044 41.291 23.7122 40.4797L14.8085 33.1992C13.8474 32.4133 13.7259 31.0214 14.537 30.0903C15.3482 29.1592 16.7848 29.0415 17.7459 29.8274L24.8282 35.6185L38.9174 17.8617Z" fill="white"/>
</svg>
