<?xml version="1.0"?>
<svg xmlns="http://www.w3.org/2000/svg" xmlns:xlink="http://www.w3.org/1999/xlink" version="1.1" id="Layer_1" x="0px" y="0px" viewBox="0 0 512 512" style="enable-background:new 0 0 512 512;" xml:space="preserve" width="512px" height="512px" class=""><g><g>
	<g>
		<rect x="88.94" y="421" width="334.12" height="91" data-original="#000000" class="active-path" data-old_color="#000000" fill="#82BA91"/>
	</g>
</g><g>
	<g>
		<path d="M408.058,48.979c-20.061,0-39.182,5.614-55.649,16.113c-6.065-15.036-15.629-28.583-28.037-39.432    C305.447,9.113,281.166,0,256,0c-25.166,0-49.447,9.113-68.372,25.661c-12.407,10.849-21.971,24.396-28.037,39.432    c-16.467-10.499-35.588-16.113-55.649-16.113C46.628,48.979,0,95.607,0,152.921c0,52.221,38.711,95.57,88.942,102.863V391h334.115    V255.784C473.289,248.491,512,205.142,512,152.921C512,95.607,465.372,48.979,408.058,48.979z" data-original="#000000" class="active-path" data-old_color="#000000" fill="#82BA91"/>
	</g>
</g></g> </svg>
