<svg width="16" height="16" viewBox="0 0 16 16" fill="none" xmlns="http://www.w3.org/2000/svg">
<rect y="5" width="3.578" height="11" fill="white"/>
<path d="M13.324 5.129C13.286 5.117 13.25 5.104 13.21 5.093C13.17 5.082 13.11 5.073 13.065 5.065C12.8537 5.02176 12.6386 4.99998 12.423 5C10.8854 5.06716 9.46556 5.84262 8.578 7.1V5H5V16H8.578V10C8.578 10 11.278 6.234 12.423 9V16H16V8.577C15.9966 6.95261 14.8967 5.53544 13.324 5.129Z" fill="white"/>
<path d="M1.75 3.5C2.7165 3.5 3.5 2.7165 3.5 1.75C3.5 0.783502 2.7165 0 1.75 0C0.783502 0 0 0.783502 0 1.75C0 2.7165 0.783502 3.5 1.75 3.5Z" fill="white"/>
</svg>
