<svg width="36" height="10" viewBox="0 0 36 10" fill="none" xmlns="http://www.w3.org/2000/svg">
<path fill-rule="evenodd" clip-rule="evenodd" d="M4.6665 0.833313C2.45317 0.833313 0.666504 2.69442 0.666504 4.99998C0.666504 7.30554 2.45317 9.16665 4.6665 9.16665C6.87984 9.16665 8.6665 7.30554 8.6665 4.99998C8.6665 2.69442 6.87984 0.833313 4.6665 0.833313ZM31.3332 0.833313C29.1198 0.833313 27.3332 2.69442 27.3332 4.99998C27.3332 7.30554 29.1198 9.16665 31.3332 9.16665C33.5465 9.16665 35.3332 7.30554 35.3332 4.99998C35.3332 2.69442 33.5465 0.833313 31.3332 0.833313ZM13.9998 4.99998C13.9998 2.69442 15.7865 0.833313 17.9998 0.833313C20.2132 0.833313 21.9998 2.69442 21.9998 4.99998C21.9998 7.30554 20.2132 9.16665 17.9998 9.16665C15.7865 9.16665 13.9998 7.30554 13.9998 4.99998Z" fill="#82BA91"/>
</svg>
