<svg width="20" height="20" viewBox="0 0 20 20" fill="none" xmlns="http://www.w3.org/2000/svg">
<path d="M20 10C20 20 20 20 10 20C0 20 0 20 0 10C0 0 0 0 10 0C20 0 20 0 20 10Z" fill="#E27E35"/>
<path fill-rule="evenodd" clip-rule="evenodd" d="M13.8712 6.37303C13.8712 8.50586 12.1349 10.2422 10.0001 10.2422C7.86538 10.2422 6.12907 8.50586 6.12907 6.37109C6.12907 4.23633 7.86538 2.5 10.0001 2.5C12.1349 2.5 13.8712 4.23633 13.8712 6.37303ZM10.0001 4.76953C10.8849 4.76953 11.6037 5.48828 11.6037 6.37305C11.6037 7.25586 10.8849 7.97461 10.0001 7.97461C9.11736 7.97461 8.39663 7.25586 8.39663 6.37305C8.39663 5.48828 9.11736 4.76953 10.0001 4.76953ZM11.5666 13.4004C12.3556 13.2207 13.1154 12.9082 13.8146 12.4688C14.3439 12.1348 14.5041 11.4356 14.1701 10.9043C13.8361 10.373 13.1369 10.2129 12.6056 10.5469C11.0197 11.5449 8.97866 11.543 7.39273 10.5469C6.8615 10.2129 6.16226 10.373 5.82827 10.9043C5.49429 11.4336 5.65445 12.1348 6.18374 12.4688C6.88296 12.9082 7.64273 13.2207 8.43179 13.4004L6.26968 15.5645C5.82634 16.0078 5.82634 16.7246 6.26968 17.168C6.49234 17.3887 6.7814 17.5 7.07046 17.5C7.36148 17.5 7.65054 17.3887 7.87322 17.168L10.0001 15.041L12.1271 17.168C12.5705 17.6113 13.2873 17.6113 13.7306 17.168C14.174 16.7246 14.174 16.0059 13.7306 15.5645L11.5666 13.4004Z" fill="white"/>
</svg>
