<svg width="16" height="17" viewBox="0 0 16 17" fill="none" xmlns="http://www.w3.org/2000/svg">
<path fill-rule="evenodd" clip-rule="evenodd" d="M12.9999 8.01664C12.9999 8.24331 12.9799 8.45664 12.9532 8.66998L14.3599 9.76998C14.4866 9.86998 14.5199 10.05 14.4399 10.1966L13.1066 12.5033C13.0266 12.65 12.8532 12.71 12.6999 12.65L11.0399 11.9833C10.6932 12.2433 10.3199 12.47 9.91323 12.6366L9.65989 14.4033C9.63989 14.5633 9.49989 14.6833 9.33323 14.6833H6.66656C6.49989 14.6833 6.35989 14.5633 6.33989 14.4033L6.08656 12.6366C5.67989 12.47 5.30656 12.25 4.95989 11.9833L3.29989 12.65C3.15323 12.7033 2.97323 12.65 2.89323 12.5033L1.55989 10.1966C1.47989 10.05 1.51323 9.86998 1.63989 9.76998L3.04656 8.66998C3.01989 8.45664 2.99989 8.23664 2.99989 8.01664C2.99989 7.79664 3.01989 7.57664 3.04656 7.36331L1.63989 6.26331C1.51323 6.16331 1.47323 5.98331 1.55989 5.83664L2.89323 3.52998C2.97323 3.38331 3.14656 3.32331 3.29989 3.38331L4.95989 4.04998C5.30656 3.78998 5.67989 3.56331 6.08656 3.39664L6.33989 1.62998C6.35989 1.46998 6.49989 1.34998 6.66656 1.34998H9.33323C9.49989 1.34998 9.63989 1.46998 9.65989 1.62998L9.91323 3.39664C10.3199 3.56331 10.6932 3.78331 11.0399 4.04998L12.6999 3.38331C12.8466 3.32998 13.0266 3.38331 13.1066 3.52998L14.4399 5.83664C14.5199 5.98331 14.4866 6.16331 14.3599 6.26331L12.9532 7.36331C12.9799 7.57664 12.9999 7.78998 12.9999 8.01664ZM5.66656 8.01664C5.66656 9.30331 6.71323 10.35 7.99989 10.35C9.28656 10.35 10.3332 9.30331 10.3332 8.01664C10.3332 6.72998 9.28656 5.68331 7.99989 5.68331C6.71323 5.68331 5.66656 6.72998 5.66656 8.01664Z" fill="#A9ADB0"/>
</svg>
