<svg width="20" height="20" viewBox="0 0 20 20" fill="none" xmlns="http://www.w3.org/2000/svg">
<path d="M3.08183 0H16.9182C18.6201 0 20 1.37979 20 3.08185V16.9182C20 18.6202 18.6201 20 16.9182 20H3.08183C1.37979 20 0 18.6202 0 16.9181V3.08185C0 1.37979 1.37979 0 3.08183 0Z" fill="#4C75A3"/>
<path d="M9.83209 14.0006H10.6502C10.6502 14.0006 10.8973 13.9734 11.0236 13.8375C11.1397 13.7126 11.136 13.4781 11.136 13.4781C11.136 13.4781 11.12 12.3804 11.6294 12.2187C12.1318 12.0594 12.7767 13.2797 13.4602 13.7489C13.9772 14.1039 14.37 14.0262 14.37 14.0262L16.1979 14.0006C16.1979 14.0006 17.154 13.9416 16.7006 13.1899C16.6635 13.1285 16.4365 12.6338 15.3415 11.6174C14.1952 10.5536 14.3489 10.7257 15.7295 8.88554C16.5703 7.76491 16.9064 7.08079 16.8014 6.78781C16.7013 6.50866 16.0829 6.58239 16.0829 6.58239L14.0248 6.59512C14.0248 6.59512 13.8722 6.57433 13.7591 6.64199C13.6484 6.70818 13.5775 6.86281 13.5775 6.86281C13.5775 6.86281 13.2516 7.72993 12.8173 8.46747C11.9009 10.0236 11.5344 10.106 11.3846 10.0092C11.0361 9.78395 11.1232 9.10456 11.1232 8.62177C11.1232 7.11366 11.3519 6.48489 10.6777 6.3221C10.454 6.26812 10.2893 6.23241 9.71711 6.22658C8.98273 6.21912 8.36132 6.22883 8.00938 6.40124C7.77523 6.51591 7.59459 6.77137 7.70467 6.78608C7.84071 6.80418 8.14869 6.8692 8.31201 7.09139C8.52296 7.37839 8.51559 8.0227 8.51559 8.0227C8.51559 8.0227 8.6368 9.79797 8.23257 10.0184C7.95519 10.1697 7.57461 9.86091 6.75757 8.44912C6.33901 7.72595 6.02288 6.92652 6.02288 6.92652C6.02288 6.92652 5.96201 6.77714 5.85328 6.69718C5.7214 6.60031 5.53713 6.5696 5.53713 6.5696L3.58138 6.58237C3.58138 6.58237 3.28784 6.59058 3.17998 6.71822C3.08403 6.83187 3.17232 7.06666 3.17232 7.06666C3.17232 7.06666 4.70336 10.6488 6.43713 12.454C8.02703 14.1093 9.83209 14.0006 9.83209 14.0006Z" fill="white"/>
</svg>
