<svg version="1.1" id="Layer_1" xmlns="http://www.w3.org/2000/svg" xmlns:xlink="http://www.w3.org/1999/xlink" x="0px" y="0px"
	 viewBox="0 0 19.8 14.2" style="enable-background:new 0 0 19.8 14.2;" xml:space="preserve">
<style type="text/css">
	.st0{fill:#ADABB9;}
</style>
<path class="st0" d="M0.1,6.9C1.7,2.8,5.6,0,9.9,0s8.2,2.8,9.8,6.9l0.1,0.2l-0.1,0.2c-1.6,4.1-5.5,6.9-9.8,6.9s-8.2-2.8-9.8-6.9
	L0,7.1L0.1,6.9z M9.9,13c3.8,0,7.2-2.4,8.7-5.9c-1.5-3.5-4.9-5.9-8.7-5.9S2.7,3.5,1.2,7.1C2.7,10.6,6.1,13,9.9,13z M9.9,10
	c-1.5,0-2.7-1.3-2.7-3s1.2-3,2.7-3s2.7,1.3,2.7,3S11.4,10,9.9,10z M9.9,8.9c0.9,0,1.6-0.8,1.6-1.8s-0.7-1.8-1.6-1.8S8.3,6.1,8.3,7.1
	S9,8.9,9.9,8.9z"/>
</svg>
