<?xml version="1.0" encoding="utf-8"?>
<!-- Generator: Adobe Illustrator 22.0.1, SVG Export Plug-In . SVG Version: 6.00 Build 0)  -->
<svg version="1.1" id="Layer_1" xmlns="http://www.w3.org/2000/svg" xmlns:xlink="http://www.w3.org/1999/xlink" x="0px" y="0px"
	 viewBox="0 0 50 50" style="enable-background:new 0 0 50 50;" xml:space="preserve">
<style type="text/css">
	.st0{fill:#7E99F9;}
</style>
<path class="st0" d="M25,0c6.9,0,13.2,2.8,17.7,7.3S50,18.1,50,25s-2.8,13.2-7.3,17.7S31.9,50,25,50s-13.2-2.8-17.7-7.3S0,31.9,0,25
	S2.8,11.8,7.3,7.3C11.9,2.8,18.1,0,25,0L25,0z M41.3,8.7C37.1,4.6,31.4,2,25,2S12.9,4.6,8.7,8.7C4.5,12.9,1.9,18.6,1.9,25
	s2.6,12.1,6.8,16.3S18.6,48,25,48s12.1-2.5,16.3-6.7s6.8-9.9,6.8-16.3S45.5,12.9,41.3,8.7L41.3,8.7z"/>
<path class="st0" d="M38.8,18.1c-0.4-0.3-1.7-0.3-3-0.3c-1.4,0-2.7,0-3,0.2c-0.3,0.1-0.9,1.7-1.8,3.3c-1,1.8-2.1,3.6-2.9,3.6
	c-1,0-0.7-3-0.7-5.2c0-1.5-0.2-1.9-0.4-2c-0.5-0.4-1.9-0.7-1.9-0.7s-4.2-0.3-4.8,1.5c0.8,0.1,2.2-0.1,1.7,5.5c0,0.3-0.7,2.6-2.6-0.5
	c-0.5-0.8-2.4-5.5-3-5.5c-2.2,0-4.3-0.1-5.1,0.3c-0.7,0.4,0.9,3.7,3.7,8c2.3,3.6,4.7,6.3,8.8,7c0.8,0.1,2.8,0.2,3.5-0.1
	c0.4-0.2-0.1-3.3,1.4-3.6c0.7-0.1,3.2,3.2,4.1,3.6c0.6,0.2,1.9,0.3,3.2,0.3c1.4,0,3,0.1,3.2-0.8c0.3-2.1-4.3-4.9-4.4-6.2
	c-0.1-0.9,1.7-2.7,2.6-4C38.3,20.6,39.5,18.7,38.8,18.1L38.8,18.1z"/>
</svg>
