<?xml version="1.0" encoding="utf-8"?>
<!-- Generator: Adobe Illustrator 22.0.1, SVG Export Plug-In . SVG Version: 6.00 Build 0)  -->
<svg version="1.1" id="Layer_1" xmlns="http://www.w3.org/2000/svg" xmlns:xlink="http://www.w3.org/1999/xlink" x="0px" y="0px"
	 viewBox="0 0 50 50" style="enable-background:new 0 0 50 50;" xml:space="preserve">
<style type="text/css">
	.st0{fill:url(#SVGID_1_);}
	.st1{fill:url(#SVGID_2_);}
	.st2{fill:url(#SVGID_3_);}
</style>
<linearGradient id="SVGID_1_" gradientUnits="userSpaceOnUse" x1="0" y1="25.8" x2="50" y2="25.8" gradientTransform="matrix(1 0 0 -1 0 50.8)">
	<stop  offset="0" style="stop-color:#769FFC"/>
	<stop  offset="1" style="stop-color:#7F30CA"/>
</linearGradient>
<path class="st0" d="M25,0c6.9,0,13.2,2.8,17.7,7.3S50,18.1,50,25s-2.8,13.2-7.3,17.7S31.9,50,25,50s-13.2-2.8-17.7-7.3S0,31.9,0,25
	S2.8,11.8,7.3,7.3C11.9,2.8,18.1,0,25,0L25,0z M41.3,8.7C37.1,4.5,31.4,1.9,25,1.9S12.9,4.5,8.7,8.7S1.9,18.6,1.9,25
	s2.6,12.1,6.8,16.3s9.9,6.8,16.3,6.8s12.1-2.6,16.3-6.8s6.8-9.9,6.8-16.3C48.1,18.6,45.5,12.9,41.3,8.7L41.3,8.7z"/>
<g>
	
		<linearGradient id="SVGID_2_" gradientUnits="userSpaceOnUse" x1="16.0766" y1="17.8195" x2="33.9387" y2="17.8195" gradientTransform="matrix(1 0 0 -1 0 50.8)">
		<stop  offset="0" style="stop-color:#769FFC"/>
		<stop  offset="1" style="stop-color:#7F30CA"/>
	</linearGradient>
	<path class="st1" d="M33.6,26.7c-0.5-0.8-1.7-1.1-2.5-0.5C24.3,30.7,19,26.3,19,26.3c-0.8-0.6-1.9-0.5-2.6,0.2
		c-0.6,0.8-0.5,1.9,0.2,2.6c0,0,2.5,2.1,6.4,2.7l-5.4,5.1c-0.7,0.7-0.8,1.8-0.1,2.6c0.7,0.7,1.8,0.8,2.6,0.1l4.7-4.4l4.7,4.4
		c0.7,0.7,1.9,0.6,2.6-0.1c0.7-0.7,0.6-1.9-0.1-2.6l-5.4-5c2-0.2,4.2-1,6.5-2.5C34,28.7,34.2,27.5,33.6,26.7z"/>
	
		<linearGradient id="SVGID_3_" gradientUnits="userSpaceOnUse" x1="17.3" y1="33.1" x2="32.7" y2="33.1" gradientTransform="matrix(1 0 0 -1 0 50.8)">
		<stop  offset="0" style="stop-color:#769FFC"/>
		<stop  offset="1" style="stop-color:#7F30CA"/>
	</linearGradient>
	<path class="st2" d="M25,25.4c2.1,0,4.1-0.9,5.4-2.3c1.4-1.4,2.3-3.3,2.3-5.4s-0.9-4-2.3-5.4S27.1,10,25,10c-2.1,0-4,0.9-5.4,2.3
		c-1.4,1.4-2.3,3.3-2.3,5.4s0.9,4,2.3,5.4C20.9,24.6,22.9,25.4,25,25.4z M21.9,14.7c0.8-0.8,1.9-1.3,3.1-1.3s2.3,0.5,3.1,1.3
		s1.3,1.9,1.3,3.1s-0.5,2.3-1.3,3.1c-0.8,0.8-1.9,1.3-3.1,1.3s-2.3-0.5-3.1-1.3c-0.8-0.8-1.3-1.9-1.3-3.1S21.1,15.5,21.9,14.7z"/>
</g>
</svg>
