<?xml version="1.0" encoding="utf-8"?>
<!-- Generator: Adobe Illustrator 22.0.1, SVG Export Plug-In . SVG Version: 6.00 Build 0)  -->
<svg version="1.1"
	 id="Layer_1" xmlns:cc="http://creativecommons.org/ns#" xmlns:dc="http://purl.org/dc/elements/1.1/" xmlns:inkscape="http://www.inkscape.org/namespaces/inkscape" xmlns:rdf="http://www.w3.org/1999/02/22-rdf-syntax-ns#" xmlns:sodipodi="http://sodipodi.sourceforge.net/DTD/sodipodi-0.dtd" xmlns:svg="http://www.w3.org/2000/svg"
	 xmlns="http://www.w3.org/2000/svg" xmlns:xlink="http://www.w3.org/1999/xlink" x="0px" y="0px" viewBox="0 0 24 16.2"
	 style="enable-background:new 0 0 24 16.2;" xml:space="preserve">
<style type="text/css">
	.st0{fill:#757193;}
</style>
<g transform="translate(0,-952.36218)">
	<path class="st0" d="M2.5,952.4c-1.4,0-2.5,1.1-2.5,2.5V966c0,1.4,1.1,2.5,2.5,2.5h19c1.4,0,2.5-1.1,2.5-2.5v-11.1
		c0-1.4-1.1-2.5-2.5-2.5C21.5,952.4,2.5,952.4,2.5,952.4z M2.7,954h18.5l-8.7,7.6c-0.3,0.3-0.7,0.3-1.1,0
		C11.5,961.6,2.7,954,2.7,954z M1.7,955.3l5.9,5.1L1.7,966C1.7,966,1.7,955.3,1.7,955.3z M22.3,955.3V966l-5.9-5.5L22.3,955.3
		L22.3,955.3z M15.1,961.6l5.6,5.3H3.2l5.6-5.3l1.5,1.3c0.9,0.8,2.3,0.8,3.3,0C13.6,962.9,15.1,961.6,15.1,961.6z"/>
</g>
</svg>
