<svg version="1.1" id="Layer_1" xmlns="http://www.w3.org/2000/svg" x="0px" y="0px"
     viewBox="0 0 19.8 19.8" style="enable-background:new 0 0 19.8 19.8; fill: #b797e7;" xml:space="preserve">
    <path class="st0" d="M19.6,18.3l-3.8-3.8c3.1-3.8,2.4-9.4-1.3-12.4S5-0.5,1.9,3.3s-2.4,9.4,1.3,12.4c3.3,2.6,7.8,2.6,11.1,0l3.8,3.8
	c0.4,0.4,1,0.4,1.3,0C19.9,19.2,20,18.6,19.6,18.3L19.6,18.3L19.6,18.3z M8.8,15.8c-3.8,0-6.9-3.1-6.9-6.9C1.9,5,5,1.9,8.8,1.9
	s6.9,3.1,6.9,6.9l0,0C15.8,12.6,12.6,15.8,8.8,15.8z"/>
</svg>
