<?xml version="1.0" encoding="utf-8"?>
<!-- Generator: Adobe Illustrator 22.0.1, SVG Export Plug-In . SVG Version: 6.00 Build 0)  -->
<svg version="1.1" id="Layer_1" xmlns="http://www.w3.org/2000/svg" xmlns:xlink="http://www.w3.org/1999/xlink" x="0px" y="0px"
	 viewBox="0 0 25.5 28.3" style="enable-background:new 0 0 25.5 28.3;" xml:space="preserve">
<style type="text/css">
	.st0{fill:#A7B4BB;}
</style>
<title>92all</title>
<path class="st0" d="M20.2,17.2c-1.3,0-2.6,0.5-3.6,1.5l-6.1-2.7c0.3-1.1,0.3-2.2,0-3.2l6.5-3c0.9,0.7,2,1,3.1,1
	c2.9,0,5.3-2.4,5.3-5.3c0-3-2.3-5.4-5.3-5.4s-5.3,2.4-5.3,5.3c0,0.7,0.1,1.4,0.4,2.1L9,10.3c-2.2-2.1-5.6-1.9-7.6,0.3
	s-1.9,5.6,0.3,7.7c2.1,2,5.3,2,7.3,0l6.1,2.7c-0.2,0.6-0.3,1.1-0.3,1.7c0,3.1,2.4,5.6,5.3,5.6s5.3-2.5,5.3-5.6S23.1,17.2,20.2,17.2z
	 M20.2,2.8c1.4,0,2.6,1.1,2.6,2.6c0,1.4-1.1,2.6-2.5,2.6c-1.4,0-2.6-1.1-2.6-2.6c0,0,0,0,0,0C17.6,3.9,18.8,2.8,20.2,2.8z M5.4,17
	c-1.5,0-2.6-1.2-2.6-2.7c0-1.5,1.2-2.7,2.7-2.6c1.4,0,2.6,1.2,2.6,2.7C8,15.8,6.8,17,5.4,17L5.4,17z M20.2,25.6
	c-1.4,0-2.5-1.3-2.5-2.8c0-1.5,1.1-2.8,2.5-2.8s2.5,1.3,2.5,2.8C22.7,24.3,21.6,25.6,20.2,25.6L20.2,25.6z"/>
</svg>
