<svg width="120" height="24" viewBox="0 0 120 24" fill="none" xmlns="http://www.w3.org/2000/svg">
<path d="M12.0264 17.25L5.83893 21L7.47955 13.9688L2.04205 9.23438L9.21393 8.625L12.0264 2.01562L14.8389 8.625L22.0108 9.23438L16.5733 13.9688L18.2139 21L12.0264 17.25Z" fill="url(#paint0_linear)"/>
<path d="M36.0792 17.25L29.8917 21L31.5323 13.9688L26.0948 9.23438L33.2667 8.625L36.0792 2.01562L38.8917 8.625L46.0635 9.23438L40.626 13.9688L42.2667 21L36.0792 17.25Z" fill="url(#paint1_linear)"/>
<path d="M60.1319 17.25L53.9444 21L55.585 13.9688L50.1475 9.23438L57.3194 8.625L60.1319 2.01562L62.9444 8.625L70.1163 9.23438L64.6788 13.9688L66.3194 21L60.1319 17.25Z" fill="url(#paint2_linear)"/>
<path d="M84.1846 17.25L77.9971 21L79.6378 13.9688L74.2003 9.23438L81.3721 8.625L84.1846 2.01562L86.9971 8.625L94.169 9.23438L88.7315 13.9688L90.3721 21L84.1846 17.25Z" fill="url(#paint3_linear)"/>
<path d="M107.974 17.25L101.786 21L103.427 13.9688L97.9893 9.23438L105.161 8.625L107.974 2.01562L110.786 8.625L117.958 9.23438L112.521 13.9688L114.161 21L107.974 17.25Z" fill="url(#paint4_linear)"/>
<defs>
<linearGradient id="paint0_linear" x1="12.0264" y1="0" x2="12.0264" y2="24" gradientUnits="userSpaceOnUse">
<stop stop-color="#BC9CFF"/>
<stop offset="1" stop-color="#8BA4F9"/>
</linearGradient>
<linearGradient id="paint1_linear" x1="36.0792" y1="0" x2="36.0792" y2="24" gradientUnits="userSpaceOnUse">
<stop stop-color="#BC9CFF"/>
<stop offset="1" stop-color="#8BA4F9"/>
</linearGradient>
<linearGradient id="paint2_linear" x1="60.1319" y1="0" x2="60.1319" y2="24" gradientUnits="userSpaceOnUse">
<stop stop-color="#BC9CFF"/>
<stop offset="1" stop-color="#8BA4F9"/>
</linearGradient>
<linearGradient id="paint3_linear" x1="84.1846" y1="0" x2="84.1846" y2="24" gradientUnits="userSpaceOnUse">
<stop stop-color="#BC9CFF"/>
<stop offset="1" stop-color="#8BA4F9"/>
</linearGradient>
<linearGradient id="paint4_linear" x1="107.974" y1="0" x2="107.974" y2="24" gradientUnits="userSpaceOnUse">
<stop stop-color="#BC9CFF"/>
<stop offset="1" stop-color="#8BA4F9"/>
</linearGradient>
</defs>
</svg>
