<svg width="17" height="21" viewBox="0 0 17 21" fill="none" xmlns="http://www.w3.org/2000/svg">
<path d="M17 11.9611C17 13.0477 16.1932 13.402 15.6873 13.402C15.1814 13.402 14.6361 13.4023 14.3799 13.402H9.28413L9.911 18.0299C9.94075 18.7487 9.71763 19.4311 9.28413 19.9515C9.07138 20.2079 8.81472 20.412 8.52999 20.551C8.24527 20.69 7.93854 20.7611 7.62875 20.7597C6.52375 20.7597 5.54625 19.9127 5.253 18.7003L3.42762 11.1739H3.42125V0.816116H13C13.1955 0.816116 13.3867 0.859678 13.5631 0.9468C16.0194 2.13979 17 9.47611 17 11.9611ZM0 10.3995V1.59053C0 1.16218 0.303875 0.816116 0.68 0.816116H2.06125V11.1739H0.68C0.303875 11.1739 0 10.8279 0 10.3995Z" fill="#EB5757"/>
</svg>
