<svg class="icon-error" width="17" height="18" viewBox="0 0 17 18" fill="none" xmlns="http://www.w3.org/2000/svg">
    <path d="M12.3566 11.5491C12.3566 11.7319 12.2813 11.9147 12.1523 12.0438L11.1844 13.0117C11.0554 13.1407 10.8725 13.216 10.6897 13.216C10.5069 13.216 10.3348 13.1407 10.2058 13.0117L8.25925 11.0651L6.31274 13.0117C6.18368 13.1407 6.01162 13.216 5.82879 13.216C5.64597 13.216 5.46315 13.1407 5.3341 13.0117L4.36622 12.0438C4.23717 11.9147 4.16189 11.7319 4.16189 11.5491C4.16189 11.3663 4.23717 11.1942 4.36622 11.0651L6.31274 9.11863L4.36622 7.17211C4.23717 7.04306 4.16189 6.87099 4.16189 6.68817C4.16189 6.50535 4.23717 6.32252 4.36622 6.19347L5.3341 5.22559C5.46315 5.09654 5.64597 5.02126 5.82879 5.02126C6.01162 5.02126 6.18368 5.09654 6.31274 5.22559L8.25925 7.17211L10.2058 5.22559C10.3348 5.09654 10.5069 5.02126 10.6897 5.02126C10.8725 5.02126 11.0554 5.09654 11.1844 5.22559L12.1523 6.19347C12.2813 6.32252 12.3566 6.50535 12.3566 6.68817C12.3566 6.87099 12.2813 7.04306 12.1523 7.17211L10.2058 9.11863L12.1523 11.0651C12.2813 11.1942 12.3566 11.3663 12.3566 11.5491ZM16.5185 9.11863C16.5185 4.55883 12.819 0.859375 8.25925 0.859375C3.69946 0.859375 0 4.55883 0 9.11863C0 13.6784 3.69946 17.3779 8.25925 17.3779C12.819 17.3779 16.5185 13.6784 16.5185 9.11863Z" fill="#EB5757"/>
</svg>
