<svg width="18" height="23" viewBox="0 0 18 23" fill="none" xmlns="http://www.w3.org/2000/svg">
<path d="M11.4528 9.04619C11.4528 9.04619 12.515 2.73844 8.18064 0C8.05003 2.19198 7.00088 4.22407 5.2958 5.58756C3.44472 7.23063 -0.0367287 10.925 0.000292911 14.8637C-0.0268357 18.2983 1.87745 21.4514 4.91419 23C5.02164 21.4642 6.83795 20.9971 8 20C9 19 9 17 8 15.594C10.5923 16.9852 12.9422 19.955 13.0874 22.9152V22.9339C15.9525 21.6089 17.8386 18.7728 17.9686 15.594C18.2761 11.8939 16.2684 6.86263 14.4871 5.21813C13.8146 6.7339 12.7702 8.05144 11.4528 9.04619Z" fill="url(#paint0_linear)"/>
<defs>
<linearGradient id="paint0_linear" x1="2" y1="-8.27842e-09" x2="13" y2="20" gradientUnits="userSpaceOnUse">
<stop stop-color="#22DCA7"/>
<stop offset="1" stop-color="#099E74"/>
</linearGradient>
</defs>
</svg>
