<svg width="35" height="37" viewBox="0 0 35 37" fill="none" xmlns="http://www.w3.org/2000/svg">
<path d="M29.0028 19.5608L23.8165 24.7294C23.1535 25.3902 22.5261 26.1028 21.9517 26.8476L19.0625 30.5936C17.7641 32.2771 15.5408 32.8246 13.7758 31.8954L8.25824 28.9904C7.38309 28.5296 6.88868 27.5595 6.99856 26.5189L8.25039 14.6659C8.31928 14.0132 8.84606 13.4803 9.47603 13.4265L9.52047 13.4228C9.8869 13.3914 10.2317 13.5112 10.4913 13.7602C10.7485 14.007 10.8887 14.3486 10.8861 14.7223C10.8723 16.6167 10.8596 19.1791 10.8596 19.1791C10.8583 19.4442 11.0382 19.6626 11.289 19.7003C11.5398 19.7379 11.7906 19.5839 11.8872 19.3333L16.9496 6.20305C17.129 5.73765 17.5829 5.43915 18.0531 5.47729L18.0941 5.48064C18.427 5.50758 18.7189 5.68558 18.8952 5.96889C19.0699 6.24968 19.1097 6.60029 19.0043 6.93078C17.8927 10.4187 15.9163 16.9324 15.7906 17.3467L15.7844 17.3669C15.7025 17.6374 15.8248 17.9201 16.0686 18.0212C16.313 18.1246 16.6033 18.0184 16.7456 17.7737L23.1191 6.81466C23.3914 6.34475 23.957 6.16217 24.407 6.3991L24.4402 6.41655C24.9285 6.67362 25.1047 7.30277 24.8329 7.81899L19.3162 18.2971C19.1847 18.5469 19.2473 18.8492 19.4622 19.0033C19.6772 19.1574 19.9779 19.1155 20.1645 18.9052L27.2391 10.9389C27.4171 10.7385 27.6652 10.6286 27.92 10.6375C28.1747 10.6461 28.4029 10.7724 28.5464 10.9839C28.7525 11.2881 28.7389 11.7027 28.5126 12.016L21.9881 21.0446C21.8286 21.2651 21.8388 21.5643 22.0122 21.7539C22.1856 21.9436 22.4721 21.969 22.6917 21.8143L27.9147 18.1322C28.3349 17.836 28.8778 17.9279 29.1506 18.3414C29.3978 18.7162 29.3357 19.2291 29.0028 19.5608Z" fill="url(#paint0_linear)"/>
<path d="M5.42336 11.5961C5.58987 10.8203 6.9907 7.24052 11.2359 8.82801M2.31479 10.6071C2.4813 9.83129 4.91561 2.90996 12.3041 6.80002" stroke="url(#paint1_linear)" stroke-linecap="round" stroke-linejoin="round"/>
<defs>
<linearGradient id="paint0_linear" x1="16.9215" y1="1.18886" x2="17.6726" y2="30.593" gradientUnits="userSpaceOnUse">
<stop stop-color="#22DCA7"/>
<stop offset="1" stop-color="#099E74"/>
</linearGradient>
<linearGradient id="paint1_linear" x1="6.6206" y1="3.80764" x2="6.30233" y2="11.9998" gradientUnits="userSpaceOnUse">
<stop stop-color="#22DCA7"/>
<stop offset="1" stop-color="#099E74"/>
</linearGradient>
</defs>
</svg>
