<svg width="17" height="21" viewBox="0 0 17 21" fill="none" xmlns="http://www.w3.org/2000/svg">
<path d="M17 8.96664C17 7.88004 16.1932 7.52575 15.6873 7.52575C15.1814 7.52575 14.6361 7.52548 14.3799 7.52575H9.28413L9.911 2.89781C9.94075 2.17905 9.71763 1.4966 9.28413 0.976284C9.07138 0.719827 8.81472 0.51578 8.52999 0.376753C8.24527 0.237726 7.93854 0.166674 7.62875 0.167987C6.52375 0.167987 5.54625 1.015 5.253 2.22745L3.42762 9.75381H3.42125V20.1116H13C13.1955 20.1116 13.3867 20.0681 13.5631 19.9809C16.0194 18.788 17 11.4516 17 8.96664ZM0 10.5282V19.3372C0 19.7656 0.303875 20.1116 0.68 20.1116H2.06125V9.75381H0.68C0.303875 9.75381 0 10.0999 0 10.5282Z" fill="#0EAA7E"/>
</svg>
