<svg width="21" height="21" viewBox="0 0 21 21" fill="none" xmlns="http://www.w3.org/2000/svg">
    <path d="M10.5 0C4.704 0 0 4.704 0 10.5C0 16.296 4.704 21 10.5 21C16.296 21 21 16.296 21 10.5C21 4.704 16.296 0 10.5 0ZM7.6545 15.0045L3.885 11.235C3.4755 10.8255 3.4755 10.164 3.885 9.7545C4.2945 9.345 4.956 9.345 5.3655 9.7545L8.4 12.7785L15.624 5.5545C16.0335 5.145 16.695 5.145 17.1045 5.5545C17.514 5.964 17.514 6.6255 17.1045 7.035L9.135 15.0045C8.736 15.414 8.064 15.414 7.6545 15.0045Z" fill="#0EAA7E"/>
</svg>
