<svg width="18" height="18" viewBox="0 0 18 18" fill="none" xmlns="http://www.w3.org/2000/svg">
<path d="M17.1485 10.3119C17.2733 9.74727 17.3363 9.1717 17.3362 8.59456C17.3362 4.17632 13.7013 0.593706 9.21816 0.593706C8.74553 0.593706 8.28214 0.635354 7.83078 0.711561C7.08572 0.24708 6.21591 -0.00011681 5.327 4.14083e-08C2.72704 4.14083e-08 0.619141 2.07709 0.619141 4.64066C0.619141 5.49577 0.855921 6.2986 1.26566 6.98712C1.1562 7.51681 1.10106 8.05548 1.10103 8.59545C1.10103 13.0137 4.73598 16.5963 9.21724 16.5963C9.72687 16.5963 10.2226 16.5511 10.7036 16.4634C11.3846 16.8249 12.1504 17.0143 12.929 17.0137C15.5289 17.0137 17.6368 14.9366 17.6368 12.3739C17.6388 11.66 17.4719 10.955 17.1485 10.3119ZM13.3822 12.42C13.0067 12.9428 12.4517 13.3584 11.733 13.6526C11.0218 13.945 10.1681 14.0921 9.19689 14.0921C8.03148 14.0921 7.05384 13.891 6.28985 13.4913C5.75382 13.2093 5.29566 12.8089 4.95334 12.3234C4.60926 11.8316 4.43445 11.3451 4.43445 10.8763C4.43445 10.5839 4.54822 10.3296 4.77205 10.1214C4.99403 9.91578 5.27983 9.80944 5.61928 9.80944C5.89768 9.80944 6.13909 9.89274 6.33425 10.0549C6.52108 10.2109 6.68109 10.443 6.80966 10.7399C6.95395 11.0651 7.11118 11.3389 7.27675 11.5551C7.43583 11.7625 7.66521 11.9379 7.95656 12.0744C8.25069 12.2109 8.64841 12.28 9.13584 12.28C9.80641 12.28 10.3567 12.14 10.7711 11.8608C11.1762 11.587 11.3723 11.2618 11.3723 10.8622C11.3723 10.5458 11.2696 10.2977 11.0578 10.1028C10.81 9.88537 10.514 9.72451 10.1921 9.63222C9.70152 9.48923 9.2043 9.368 8.70205 9.26891C7.86037 9.09079 7.14541 8.87989 6.57565 8.64241C5.99295 8.39873 5.52401 8.05934 5.18087 7.63488C4.83402 7.20688 4.65644 6.66723 4.65644 6.03365C4.65644 5.42931 4.84142 4.88434 5.20769 4.41381C5.57119 3.94859 6.10024 3.58528 6.78284 3.33539C7.45618 3.08993 8.25902 2.96499 9.16544 2.96499C9.88966 2.96499 10.5279 3.04828 11.0588 3.21044C11.5934 3.37526 12.0447 3.5968 12.399 3.86972C12.7569 4.14531 13.0224 4.4395 13.1889 4.74345C13.3572 5.05359 13.4432 5.35931 13.4432 5.65704C13.4432 5.94238 13.3313 6.20201 13.1093 6.42886C12.8873 6.65748 12.6071 6.77179 12.2769 6.77179C11.9772 6.77179 11.7404 6.69913 11.5776 6.55735C11.426 6.4262 11.2669 6.21796 11.093 5.922C10.8904 5.54273 10.6453 5.24322 10.3641 5.0341C10.0913 4.82851 9.6353 4.72395 9.0082 4.72395C8.42643 4.72395 7.95287 4.84003 7.60324 5.06688C7.26287 5.28753 7.09916 5.5383 7.09916 5.83427C7.09916 6.0177 7.15281 6.17011 7.26195 6.29949C7.37756 6.4395 7.54035 6.5609 7.74568 6.6628C7.95842 6.76914 8.17762 6.85243 8.39775 6.91269C8.62344 6.97472 9.00265 7.0651 9.52154 7.18473C10.1792 7.32297 10.7822 7.47893 11.315 7.6464C11.8051 7.79427 12.2723 8.00438 12.7042 8.27112C13.0927 8.5219 13.4016 8.84268 13.619 9.2246C13.8382 9.60918 13.9491 10.0833 13.9491 10.6335C13.9568 11.2708 13.7588 11.8947 13.3822 12.42Z" fill="#15ACE5"/>
</svg>
