<svg width="21" height="21" viewBox="0 0 21 21" fill="none" xmlns="http://www.w3.org/2000/svg">
<path d="M9.56334 1.50494C9.88729 0.638598 11.1127 0.638597 11.4367 1.50494L13.3541 6.63275C13.4946 7.00859 13.8462 7.26404 14.2471 7.28155L19.7164 7.52054C20.6405 7.56092 21.0191 8.72637 20.2953 9.30217L16.011 12.7103C15.697 12.9601 15.5627 13.3734 15.6699 13.7601L17.1327 19.0356C17.3799 19.9269 16.3885 20.6472 15.6172 20.1367L11.0519 17.1153C10.7173 16.8938 10.2827 16.8938 9.94809 17.1153L5.38283 20.1367C4.61152 20.6472 3.62013 19.9269 3.86728 19.0356L5.33011 13.7601C5.43733 13.3734 5.30303 12.9601 4.98901 12.7103L0.704694 9.30217C-0.0191454 8.72637 0.35953 7.56092 1.28358 7.52054L6.75292 7.28155C7.1538 7.26404 7.50539 7.00859 7.64593 6.63275L9.56334 1.50494Z" fill="url(#paint0_linear)"/>
<defs>
<linearGradient id="paint0_linear" x1="0.777778" y1="-1" x2="11.0605" y2="22.8892" gradientUnits="userSpaceOnUse">
<stop stop-color="#22DCA7"/>
<stop offset="1" stop-color="#099E74"/>
</linearGradient>
</defs>
</svg>
